<svg width="400" height="309" viewBox="0 0 400 309" fill="none" xmlns="http://www.w3.org/2000/svg">
<g clip-path="url(#clip0)">
<path opacity="0.1" d="M250.928 49.7539C234.275 60.286 212.675 59.6006 193.75 54.1258C174.824 48.651 157.435 38.887 139.001 31.9509C123.517 26.1329 107.351 22.3259 90.8979 20.6231C67.3956 18.1929 41.152 21.1509 24.7748 38.178C6.53853 57.1429 7.93678 91.3506 27.6619 108.752C37.6938 117.606 50.8333 121.95 62.291 128.863C73.7487 135.775 84.3478 147.257 83.375 160.601C82.473 172.953 71.9724 182.433 61.1055 188.381C52.7042 192.977 42.3572 197.995 41.345 207.515C40.3682 216.728 49.0648 223.947 57.3716 228.052C84.4699 241.443 117.854 241.313 144.846 227.713C154.477 222.86 163.331 216.409 173.43 212.628C199.949 202.698 229.166 212.695 257.246 216.35C281.088 219.437 305.304 217.843 328.536 211.659C342.44 207.948 356.399 202.277 366.167 191.709C373.209 184.088 377.589 174.446 381.721 164.926C386.114 154.769 390.336 144.542 394.388 134.243C396.822 128.059 399.217 121.757 399.843 115.14C400.981 103.155 396.188 91.3073 389.653 81.1887C374.135 57.1665 348.017 40.2773 319.737 35.9881C291.457 31.6988 261.527 40.0843 239.588 58.4112" fill="#59A5FF"/>
<path opacity="0.1" d="M53.4641 308.61C82.9915 308.61 106.928 303.93 106.928 298.157C106.928 292.383 82.9915 287.703 53.4641 287.703C23.9367 287.703 0 292.383 0 298.157C0 303.93 23.9367 308.61 53.4641 308.61Z" fill="#59A5FF"/>
<path opacity="0.1" d="M212.293 286.778C274.189 286.778 324.365 282.098 324.365 276.324C324.365 270.551 274.189 265.871 212.293 265.871C150.397 265.871 100.221 270.551 100.221 276.324C100.221 282.098 150.397 286.778 212.293 286.778Z" fill="#59A5FF"/>
<path d="M288.365 201.898C288.365 201.898 304.077 174.068 327.752 166.056C337.682 162.689 346.351 156.359 352.279 147.71C355.084 143.598 357.507 139.238 359.518 134.684" stroke="#535461" stroke-width="2" stroke-miterlimit="10"/>
<path d="M374.379 129.54C371.681 132.156 359.124 134.862 359.124 134.862C359.124 134.862 362.208 122.396 364.902 119.776C366.197 118.52 367.938 117.829 369.742 117.856C371.546 117.883 373.266 118.625 374.522 119.92C375.779 121.215 376.47 122.956 376.443 124.76C376.416 126.564 375.673 128.284 374.379 129.54Z" fill="#59A5FF"/>
<path d="M367.277 152.105C363.591 152.834 351.582 148.281 351.582 148.281C351.582 148.281 360.944 139.49 364.627 138.757C365.511 138.561 366.427 138.544 367.318 138.706C368.21 138.869 369.06 139.208 369.819 139.703C370.578 140.199 371.23 140.841 371.737 141.592C372.245 142.343 372.597 143.188 372.773 144.076C372.95 144.965 372.947 145.881 372.765 146.768C372.583 147.656 372.226 148.499 371.714 149.247C371.202 149.995 370.546 150.633 369.784 151.124C369.022 151.614 368.17 151.948 367.277 152.105Z" fill="#59A5FF"/>
<path d="M341.4 176.521C337.855 175.292 329.781 165.3 329.781 165.3C329.781 165.3 342.302 162.433 345.851 163.661C346.715 163.938 347.516 164.384 348.205 164.974C348.894 165.564 349.459 166.286 349.865 167.098C350.271 167.909 350.511 168.794 350.57 169.699C350.63 170.605 350.508 171.513 350.211 172.371C349.914 173.228 349.449 174.018 348.842 174.693C348.236 175.368 347.5 175.915 346.68 176.302C345.859 176.688 344.969 176.907 344.062 176.945C343.155 176.982 342.25 176.839 341.4 176.521Z" fill="#59A5FF"/>
<path d="M317.685 190.587C313.978 189.976 304.336 181.484 304.336 181.484C304.336 181.484 316.192 176.545 319.898 177.152C320.78 177.297 321.624 177.614 322.382 178.086C323.141 178.558 323.799 179.174 324.32 179.9C324.84 180.626 325.213 181.447 325.416 182.317C325.619 183.187 325.648 184.089 325.503 184.97C325.358 185.851 325.04 186.695 324.569 187.454C324.097 188.213 323.481 188.871 322.755 189.392C322.029 189.912 321.207 190.284 320.337 190.487C319.467 190.69 318.566 190.72 317.685 190.575V190.587Z" fill="#59A5FF"/>
<path d="M341.108 138.552C341.108 142.31 347.907 153.208 347.907 153.208C347.907 153.208 354.713 142.314 354.717 138.556C354.674 136.78 353.938 135.091 352.667 133.85C351.396 132.608 349.689 131.914 347.912 131.914C346.136 131.914 344.429 132.608 343.158 133.85C341.887 135.091 341.151 136.78 341.108 138.556V138.552Z" fill="#59A5FF"/>
<path d="M313.569 155.343C314.691 158.927 324.436 167.293 324.436 167.293C324.436 167.293 327.673 154.862 326.551 151.278C326.012 149.554 324.81 148.116 323.21 147.278C321.61 146.44 319.743 146.273 318.02 146.812C316.296 147.351 314.857 148.552 314.019 150.152C313.182 151.752 313.014 153.619 313.553 155.343H313.569Z" fill="#59A5FF"/>
<path d="M289.039 175.348C289.539 179.074 297.735 188.964 297.735 188.964C297.735 188.964 303.025 177.262 302.525 173.536C302.285 171.747 301.344 170.128 299.909 169.033C298.475 167.938 296.664 167.458 294.876 167.699C293.087 167.939 291.468 168.88 290.373 170.314C289.278 171.749 288.798 173.559 289.039 175.348Z" fill="#59A5FF"/>
<path opacity="0.25" d="M374.379 129.54C371.681 132.156 359.124 134.862 359.124 134.862C359.124 134.862 362.208 122.396 364.902 119.776C366.197 118.52 367.938 117.829 369.742 117.856C371.546 117.883 373.266 118.625 374.522 119.92C375.779 121.215 376.47 122.956 376.443 124.76C376.416 126.564 375.673 128.284 374.379 129.54Z" fill="black"/>
<path opacity="0.25" d="M367.277 152.105C363.591 152.834 351.582 148.281 351.582 148.281C351.582 148.281 360.944 139.49 364.627 138.757C365.511 138.561 366.427 138.544 367.318 138.706C368.21 138.869 369.06 139.208 369.819 139.703C370.578 140.199 371.23 140.841 371.737 141.592C372.245 142.343 372.597 143.188 372.773 144.076C372.95 144.965 372.947 145.881 372.765 146.768C372.583 147.656 372.226 148.499 371.714 149.247C371.202 149.995 370.546 150.633 369.784 151.124C369.022 151.614 368.17 151.948 367.277 152.105Z" fill="black"/>
<path opacity="0.25" d="M341.4 176.521C337.855 175.292 329.781 165.3 329.781 165.3C329.781 165.3 342.302 162.433 345.851 163.661C346.715 163.938 347.516 164.384 348.205 164.974C348.894 165.564 349.459 166.286 349.865 167.098C350.271 167.909 350.511 168.794 350.57 169.699C350.63 170.605 350.508 171.513 350.211 172.371C349.914 173.228 349.449 174.018 348.842 174.693C348.236 175.368 347.5 175.915 346.68 176.302C345.859 176.688 344.969 176.907 344.062 176.945C343.155 176.982 342.25 176.839 341.4 176.521Z" fill="black"/>
<path opacity="0.25" d="M317.685 190.587C313.978 189.976 304.336 181.484 304.336 181.484C304.336 181.484 316.192 176.545 319.898 177.152C320.78 177.297 321.624 177.614 322.382 178.086C323.141 178.558 323.799 179.174 324.32 179.9C324.84 180.626 325.213 181.447 325.416 182.317C325.619 183.187 325.648 184.089 325.503 184.97C325.358 185.851 325.04 186.695 324.569 187.454C324.097 188.213 323.481 188.871 322.755 189.392C322.029 189.912 321.207 190.284 320.337 190.487C319.467 190.69 318.566 190.72 317.685 190.575V190.587Z" fill="black"/>
<path opacity="0.25" d="M341.108 138.552C341.108 142.31 347.907 153.208 347.907 153.208C347.907 153.208 354.713 142.314 354.717 138.556C354.674 136.78 353.938 135.091 352.667 133.85C351.396 132.608 349.689 131.914 347.912 131.914C346.136 131.914 344.429 132.608 343.158 133.85C341.887 135.091 341.151 136.78 341.108 138.556V138.552Z" fill="black"/>
<path opacity="0.25" d="M313.569 155.343C314.691 158.927 324.436 167.293 324.436 167.293C324.436 167.293 327.673 154.862 326.551 151.278C326.012 149.554 324.81 148.116 323.21 147.278C321.61 146.44 319.743 146.273 318.02 146.812C316.296 147.351 314.857 148.552 314.019 150.152C313.182 151.752 313.014 153.619 313.553 155.343H313.569Z" fill="black"/>
<path opacity="0.25" d="M289.039 175.348C289.539 179.074 297.735 188.964 297.735 188.964C297.735 188.964 303.025 177.262 302.525 173.536C302.285 171.747 301.344 170.128 299.909 169.033C298.475 167.938 296.664 167.458 294.876 167.699C293.087 167.939 291.468 168.88 290.373 170.314C289.278 171.749 288.798 173.559 289.039 175.348Z" fill="black"/>
<path d="M289.271 201.343C289.271 201.343 292.355 169.534 310.733 152.617C318.487 145.569 323.747 136.196 325.724 125.905C326.622 121.012 327.07 116.047 327.063 111.072" stroke="#535461" stroke-width="2" stroke-miterlimit="10"/>
<path d="M338.584 100.347C337.178 103.832 326.795 111.375 326.795 111.375C326.795 111.375 324.558 98.7278 325.964 95.2263C326.691 93.6323 328.005 92.3802 329.632 91.7308C331.259 91.0814 333.074 91.0847 334.698 91.7402C336.323 92.3956 337.632 93.6526 338.353 95.2492C339.074 96.8459 339.151 98.6591 338.568 100.311L338.584 100.347Z" fill="#59A5FF"/>
<path d="M341.231 123.845C338.158 126.007 325.334 126.712 325.334 126.712C325.334 126.712 330.332 114.896 333.404 112.718C334.881 111.703 336.698 111.311 338.461 111.628C340.225 111.944 341.792 112.944 342.823 114.409C343.853 115.875 344.264 117.688 343.966 119.454C343.668 121.221 342.685 122.799 341.231 123.845Z" fill="#59A5FF"/>
<path d="M327.48 156.647C323.739 156.962 312.312 151.097 312.312 151.097C312.312 151.097 322.596 143.405 326.342 143.09C327.232 143.015 328.129 143.116 328.98 143.388C329.831 143.659 330.62 144.096 331.302 144.672C331.984 145.249 332.546 145.954 332.956 146.748C333.366 147.542 333.615 148.409 333.69 149.299C333.765 150.189 333.663 151.085 333.392 151.936C333.12 152.787 332.684 153.576 332.107 154.259C331.53 154.941 330.825 155.503 330.031 155.913C329.237 156.323 328.371 156.572 327.48 156.647Z" fill="#59A5FF"/>
<path d="M311.489 179.121C307.854 180.062 295.601 176.214 295.601 176.214C295.601 176.214 304.439 166.891 308.074 165.95C309.821 165.497 311.676 165.757 313.231 166.671C314.786 167.586 315.915 169.081 316.367 170.828C316.82 172.575 316.561 174.429 315.646 175.985C314.731 177.54 313.236 178.668 311.489 179.121Z" fill="#59A5FF"/>
<path d="M311.812 122.049C313.336 125.483 323.967 132.683 323.967 132.683C323.967 132.683 325.775 119.969 324.254 116.535C323.523 114.885 322.167 113.593 320.483 112.943C318.799 112.294 316.926 112.339 315.276 113.071C313.626 113.802 312.334 115.159 311.685 116.842C311.035 118.526 311.081 120.399 311.812 122.049Z" fill="#59A5FF"/>
<path d="M293.442 148.572C295.923 151.392 308.224 155.091 308.224 155.091C308.224 155.091 306.144 142.416 303.667 139.592C302.476 138.234 300.794 137.405 298.992 137.286C297.19 137.168 295.414 137.771 294.056 138.962C292.698 140.153 291.869 141.834 291.751 143.636C291.633 145.439 292.235 147.214 293.426 148.572H293.442Z" fill="#59A5FF"/>
<path d="M279.125 176.801C281.094 180.003 292.591 185.726 292.591 185.726C292.591 185.726 292.686 172.882 290.72 169.68C289.776 168.142 288.259 167.043 286.504 166.623C284.749 166.203 282.9 166.498 281.362 167.443C279.824 168.387 278.725 169.903 278.305 171.658C277.886 173.414 278.18 175.263 279.125 176.801Z" fill="#59A5FF"/>
<path d="M111.009 0V10.7842V277.861H310.859V10.7842V0H111.009Z" fill="url(#paint0_linear)"/>
<path d="M309.106 2.43805H112.761V13.0293H309.106V2.43805Z" fill="#F6F7F9"/>
<g opacity="0.2">
<path opacity="0.2" d="M309.106 2.43805H112.761V13.0293H309.106V2.43805Z" fill="#59A5FF"/>
</g>
<path d="M309.106 13.0293H112.761V275.422H309.106V13.0293Z" fill="#F6F7F9"/>
<path d="M117.925 9.52775C118.917 9.52775 119.721 8.72362 119.721 7.73169C119.721 6.73976 118.917 5.93564 117.925 5.93564C116.933 5.93564 116.129 6.73976 116.129 7.73169C116.129 8.72362 116.933 9.52775 117.925 9.52775Z" fill="#F6F7F9"/>
<path d="M122.794 9.52775C123.786 9.52775 124.59 8.72362 124.59 7.73169C124.59 6.73976 123.786 5.93564 122.794 5.93564C121.802 5.93564 120.998 6.73976 120.998 7.73169C120.998 8.72362 121.802 9.52775 122.794 9.52775Z" fill="#F6F7F9"/>
<path d="M127.661 9.52775C128.653 9.52775 129.457 8.72362 129.457 7.73169C129.457 6.73976 128.653 5.93564 127.661 5.93564C126.669 5.93564 125.865 6.73976 125.865 7.73169C125.865 8.72362 126.669 9.52775 127.661 9.52775Z" fill="#F6F7F9"/>
<g opacity="0.2">
<path opacity="0.2" d="M274.06 29.2056H147.804V34.1486H274.06V29.2056Z" fill="#59A5FF"/>
</g>
<path d="M274.06 29.2056H257.285V34.1486H274.06V29.2056Z" fill="#59A5FF"/>
<g opacity="0.2">
<path opacity="0.2" d="M209.161 130.222H129.709V187.132H209.161V130.222Z" fill="#59A5FF"/>
</g>
<g opacity="0.2">
<path opacity="0.2" d="M209.161 56.3984H129.709V113.309H209.161V56.3984Z" fill="#59A5FF"/>
</g>
<g opacity="0.2">
<path opacity="0.2" d="M209.161 203.084H129.709V259.994H209.161V203.084Z" fill="#59A5FF"/>
</g>
<g opacity="0.2">
<path opacity="0.2" d="M292.158 130.222H212.706V187.132H292.158V130.222Z" fill="#59A5FF"/>
</g>
<g opacity="0.2">
<path opacity="0.2" d="M292.158 56.3984H212.706V113.309H292.158V56.3984Z" fill="#59A5FF"/>
</g>
<g opacity="0.2">
<path opacity="0.2" d="M292.158 203.084H212.706V259.994H292.158V203.084Z" fill="#59A5FF"/>
</g>
<path d="M366.919 249.911C366.919 249.911 369.731 253.586 365.623 259.132C361.515 264.678 358.14 269.373 359.498 272.823C359.498 272.823 365.694 262.519 370.74 262.377C375.785 262.236 372.469 256.107 366.919 249.911Z" fill="#3ACC6C"/>
<path opacity="0.1" d="M366.919 249.911C367.164 250.265 367.358 250.653 367.494 251.061C372.417 256.844 375.037 262.24 370.306 262.377C365.903 262.503 360.613 270.381 359.349 272.37C359.39 272.524 359.44 272.675 359.498 272.823C359.498 272.823 365.694 262.519 370.739 262.377C375.785 262.236 372.468 256.107 366.919 249.911Z" fill="black"/>
<path d="M372.146 254.595C372.146 255.886 372 256.934 371.823 256.934C371.645 256.934 371.496 255.886 371.496 254.595C371.496 253.303 371.677 253.909 371.858 253.909C372.039 253.909 372.146 253.299 372.146 254.595Z" fill="#FFD037"/>
<path d="M373.937 256.138C372.803 256.757 371.81 257.131 371.728 256.973C371.645 256.816 372.492 256.186 373.626 255.567C374.761 254.949 374.315 255.402 374.414 255.567C374.512 255.733 375.072 255.532 373.937 256.138Z" fill="#FFD037"/>
<path d="M352.078 249.911C352.078 249.911 349.266 253.586 353.374 259.132C357.482 264.678 360.857 269.373 359.498 272.823C359.498 272.823 353.303 262.519 348.257 262.377C343.212 262.236 346.52 256.107 352.078 249.911Z" fill="#3ACC6C"/>
<path opacity="0.1" d="M352.078 249.911C351.832 250.265 351.639 250.653 351.503 251.061C346.579 256.844 343.96 262.24 348.691 262.377C353.098 262.503 358.384 270.381 359.648 272.37C359.608 272.524 359.558 272.675 359.498 272.823C359.498 272.823 353.303 262.519 348.257 262.377C343.212 262.236 346.52 256.107 352.078 249.911Z" fill="black"/>
<path d="M346.851 254.595C346.851 255.886 346.997 256.934 347.178 256.934C347.359 256.934 347.501 255.886 347.501 254.595C347.501 253.303 347.32 253.909 347.143 253.909C346.965 253.909 346.851 253.299 346.851 254.595Z" fill="#FFD037"/>
<path d="M345.059 256.138C346.197 256.757 347.186 257.131 347.273 256.973C347.359 256.816 346.505 256.186 345.37 255.567C344.236 254.949 344.681 255.402 344.582 255.567C344.484 255.733 343.925 255.532 345.059 256.138Z" fill="#FFD037"/>
<path opacity="0.1" d="M359.498 300.937C375.726 300.937 388.881 298.918 388.881 296.428C388.881 293.937 375.726 291.918 359.498 291.918C343.27 291.918 330.115 293.937 330.115 296.428C330.115 298.918 343.27 300.937 359.498 300.937Z" fill="#59A5FF"/>
<path d="M374.623 267.872L374.481 269.018L374.284 270.641L374.201 271.314L374.004 272.937L373.918 273.615L373.721 275.233L371.472 293.667C371.271 295.313 368.585 296.593 365.339 296.593H353.657C350.412 296.593 347.749 295.313 347.528 293.667L345.275 275.226L345.079 273.607L344.996 272.929L344.795 271.307L344.712 270.633L344.515 269.01L344.374 267.864C344.263 266.954 345.732 266.167 347.552 266.167H371.448C373.28 266.167 374.737 266.954 374.623 267.872Z" fill="#65617D"/>
<path d="M374.481 269.018L374.284 270.637H344.713L344.516 269.018H374.481Z" fill="#9D9CB5"/>
<path d="M374.201 271.314L374.004 272.937H344.996L344.795 271.314H374.201Z" fill="#9D9CB5"/>
<path d="M373.918 273.611L373.721 275.233H345.276L345.079 273.611H373.918Z" fill="#9D9CB5"/>
<path d="M233.018 67.3953C233.018 67.3953 232.298 65.5953 237.158 66.0443C242.018 66.4934 255.973 68.0452 262.007 66.6864C268.041 65.3275 271.637 64.8942 271.279 66.6864C270.921 68.4785 260.838 72.5275 260.838 72.5275L247.781 73.8784L238.151 72.3463L232.979 69.2859L233.018 67.3953Z" fill="#59A5FF"/>
<path opacity="0.1" d="M271.291 66.6864C270.928 68.4785 260.849 72.5275 260.849 72.5275L247.792 73.8784L238.162 72.3502L232.995 69.2898L233.03 67.3993C232.98 67.2435 232.98 67.076 233.029 66.92C233.078 66.764 233.175 66.6273 233.306 66.5288C233.751 66.1349 234.791 65.8277 237.17 66.0483C242.034 66.4973 255.985 68.0452 262.019 66.6864C266.935 65.5796 270.235 65.0872 271.078 65.8986C271.182 65.998 271.257 66.1239 271.294 66.2628C271.332 66.4017 271.331 66.5481 271.291 66.6864Z" fill="black"/>
<path d="M279.05 93.9541C270.649 95.5714 262.726 99.0802 255.883 104.214C255.536 103.293 254.884 102.519 254.035 102.021C253.456 101.661 252.823 101.395 252.161 101.233C251.558 101.079 250.979 101.446 250.447 101.973C249.835 102.65 249.322 103.41 248.923 104.23C239.742 97.9282 225.814 93.9068 225.814 93.9068V92.6464C225.814 92.3983 225.858 92.099 225.905 91.7602C225.952 91.4215 226.011 91.1222 226.086 90.7559C227.268 84.7454 231.939 71.0111 231.939 71.0111H233.385H237.221L247.462 73.138L258.982 72.433L270.586 70.0185L272.09 69.7034C274.599 71.6728 277.447 85.4583 278.566 91.327C278.707 92.0714 278.818 92.6858 278.9 93.1388C278.999 93.6508 279.05 93.9541 279.05 93.9541Z" fill="#59A5FF"/>
<path d="M227.721 91.3506C228.024 85.5804 232.609 73.075 233.385 70.9993H231.939C231.939 70.9993 226.992 85.5725 225.988 91.26C225.985 91.2744 225.985 91.289 225.988 91.3033C225.96 91.457 225.933 91.6066 225.913 91.7484C225.866 92.0872 225.834 92.3865 225.822 92.6346V93.895C225.822 93.895 239.75 97.9204 248.931 104.218C249.33 103.398 249.843 102.638 250.455 101.962C246.946 98.7711 233.637 93.572 227.721 91.3506Z" fill="#59A5FF"/>
<path d="M278.9 93.123C278.865 92.9221 278.821 92.6898 278.774 92.4337C278.715 92.1029 278.644 91.7287 278.565 91.3112C277.447 85.4347 274.599 71.6452 272.09 69.6877L270.586 70.0028C271.499 72.4566 277.388 88.4793 276.888 91.6066C267.041 93.576 257.06 99.9764 254.043 102.021C254.892 102.519 255.544 103.293 255.89 104.214C262.734 99.0802 270.657 95.5714 279.058 93.9541C279.058 93.9541 278.999 93.6508 278.9 93.123Z" fill="#59A5FF"/>
<path opacity="0.1" d="M228.083 90.9882C228.382 85.218 232.971 72.7126 233.747 70.6408H232.297C232.297 70.6408 227.35 85.2141 226.346 90.8977C226.346 90.8977 226.346 90.9292 226.346 90.941C226.317 91.0985 226.294 91.2482 226.275 91.39C226.228 91.7287 226.196 92.0281 226.185 92.2762V93.5366C226.185 93.5366 240.108 97.558 249.293 103.86C249.689 103.039 250.201 102.279 250.813 101.603C247.304 98.4206 233.999 93.2097 228.083 90.9882Z" fill="black"/>
<path d="M227.721 91.3506C228.024 85.5804 232.609 73.075 233.385 70.9993H231.939C231.939 70.9993 226.992 85.5725 225.988 91.26C225.985 91.2744 225.985 91.289 225.988 91.3033C225.96 91.457 225.933 91.6066 225.913 91.7484C225.866 92.0872 225.834 92.3865 225.822 92.6346V93.895C225.822 93.895 239.75 97.9204 248.931 104.218C249.33 103.398 249.843 102.638 250.455 101.962C246.946 98.7711 233.637 93.572 227.721 91.3506Z" fill="#59A5FF"/>
<path opacity="0.1" d="M278.542 92.7607L278.416 92.0714C278.353 91.7405 278.286 91.3703 278.207 90.9489C277.092 85.0763 274.241 71.2868 271.732 69.3253L270.231 69.6444C271.145 72.0982 277.033 88.1209 276.533 91.2482C266.686 93.2176 256.702 99.618 253.688 101.658C254.538 102.158 255.19 102.934 255.536 103.856C262.377 98.7192 270.299 95.2089 278.699 93.5918C278.699 93.5918 278.64 93.2963 278.542 92.7607Z" fill="black"/>
<path d="M278.9 93.123C278.865 92.9221 278.821 92.6898 278.774 92.4337C278.715 92.1029 278.644 91.7287 278.565 91.3112C277.447 85.4347 274.599 71.6452 272.09 69.6877L270.586 70.0028C271.499 72.4566 277.388 88.4793 276.888 91.6066C267.041 93.576 257.06 99.9764 254.043 102.021C254.892 102.519 255.544 103.293 255.89 104.214C262.734 99.0802 270.657 95.5714 279.058 93.9541C279.058 93.9541 278.999 93.6508 278.9 93.123Z" fill="#59A5FF"/>
<path opacity="0.1" d="M231.144 78.1205C231.144 78.1205 240.281 83.871 242.416 75.45L244.449 75.9936C244.449 75.9936 245.118 85.3244 230.537 79.9992L231.144 78.1205Z" fill="black"/>
<path d="M231.144 77.3997C231.144 77.3997 240.281 83.1502 242.416 74.7292L244.449 75.2728C244.449 75.2728 245.118 84.6036 230.537 79.2785L231.144 77.3997Z" fill="#59A5FF"/>
<path opacity="0.1" d="M259.896 75.7218C259.896 75.7218 261.078 82.6027 273.599 79.2666L273.158 77.9668C273.158 77.9668 264.607 81.5117 261.507 75.3555L259.896 75.7218Z" fill="black"/>
<path d="M259.896 75.001C259.896 75.001 261.078 81.8819 273.599 78.5458L273.158 77.2461C273.158 77.2461 264.607 80.7909 261.507 74.6347L259.896 75.001Z" fill="#59A5FF"/>
<path opacity="0.1" d="M251.562 75.6312V89.9917H253.783C253.783 89.9917 256.855 88.885 256.784 82.4294C256.713 75.9739 256.245 74.2369 256.245 74.2369L251.562 75.6312Z" fill="black"/>
<path d="M251.203 75.2728V89.6333H253.425C253.425 89.6333 256.497 88.5265 256.426 82.071C256.355 75.6154 255.882 73.8784 255.882 73.8784L251.203 75.2728Z" fill="#59A5FF"/>
<path opacity="0.1" d="M272.078 70.4124C271.172 72.0982 262.948 74.8671 261.495 75.3437L261.274 75.4146C261.274 75.4146 260.754 75.5485 259.884 75.7297C257.237 76.2811 251.337 77.3051 246.886 76.4071C246.24 76.2811 245.571 76.1432 244.889 76.0132L243.314 75.6706C238.193 74.5323 232.896 73.0435 231.955 71.7319C231.955 71.7319 232.211 67.4505 233.073 67.5647C233.936 67.6789 243.566 71.7319 243.566 71.7319L243.704 71.7516C243.952 71.7831 244.515 71.854 245.307 71.9446C248.434 72.2872 255.024 72.8308 258.568 71.8815C258.738 71.8343 258.895 71.787 259.049 71.7319C259.317 71.6413 259.596 71.5467 259.884 71.4404C264.445 69.8255 271.275 66.9345 271.275 66.9345C271.275 66.9345 273.079 68.5573 272.078 70.4124Z" fill="black"/>
<path opacity="0.1" d="M271.291 66.6864C270.928 68.4785 260.849 72.5275 260.849 72.5275L247.792 73.8785L238.162 72.3503L232.995 69.2899L233.03 67.3993C232.98 67.2435 232.98 67.076 233.029 66.92C233.078 66.7641 233.175 66.6273 233.306 66.5288C235.019 67.0487 243.546 70.6369 243.546 70.6369L243.684 70.6566C243.932 70.6881 244.496 70.759 245.287 70.8496C248.415 71.1923 255.004 71.7358 258.549 70.7866C258.718 70.7393 258.876 70.6921 259.03 70.6369C259.297 70.5503 259.577 70.4518 259.865 70.3455C263.988 68.8842 269.971 66.3792 271.078 65.9144C271.179 66.0123 271.252 66.1356 271.29 66.2714C271.327 66.4071 271.328 66.5504 271.291 66.6864Z" fill="black"/>
<path d="M272.078 69.6877C271.172 71.3734 262.948 74.1384 261.495 74.615L261.274 74.6898C261.274 74.6898 260.754 74.8198 259.884 75.001C257.237 75.5524 251.337 76.5765 246.886 75.6784C246.24 75.5524 245.571 75.4145 244.889 75.2846L243.314 74.9419C238.193 73.8036 232.896 72.3148 231.955 71.0032C231.955 71.0032 232.211 66.7218 233.073 66.84C233.936 66.9581 243.566 71.0032 243.566 71.0032L243.704 71.0229C243.952 71.0544 244.515 71.1292 245.307 71.2159C248.434 71.5585 255.024 72.1021 258.568 71.1529C258.738 71.1056 258.895 71.0583 259.049 71.0032C259.317 70.9165 259.596 70.8181 259.884 70.7117C264.445 69.0969 271.275 66.2058 271.275 66.2058C271.275 66.2058 273.079 67.8404 272.078 69.6877Z" fill="#59A5FF"/>
<path opacity="0.1" d="M253.121 75.6785C253.917 75.6785 254.563 75.033 254.563 74.2369C254.563 73.4407 253.917 72.7953 253.121 72.7953C252.325 72.7953 251.68 73.4407 251.68 74.2369C251.68 75.033 252.325 75.6785 253.121 75.6785Z" fill="black"/>
<path d="M253.121 75.3161C253.917 75.3161 254.563 74.6706 254.563 73.8745C254.563 73.0783 253.917 72.4329 253.121 72.4329C252.325 72.4329 251.68 73.0783 251.68 73.8745C251.68 74.6706 252.325 75.3161 253.121 75.3161Z" fill="#59A5FF"/>
<path opacity="0.1" d="M245.65 71.2001L245.256 75.2649L243.68 74.9222L244.074 71.0071C244.295 71.0465 244.862 71.1213 245.65 71.2001Z" fill="black"/>
<path d="M245.295 71.2001L244.901 75.2649L243.326 74.9222L243.72 71.0071C243.936 71.0465 244.507 71.1213 245.295 71.2001Z" fill="#59A5FF"/>
<path opacity="0.1" d="M261.144 74.615L260.924 74.6898C260.924 74.6898 260.408 74.8198 259.534 75.001L258.19 71.145C258.36 71.0977 258.521 71.0505 258.675 70.9953C258.943 70.9087 259.222 70.8102 259.51 70.7039L261.144 74.615Z" fill="black"/>
<path d="M261.507 74.615L261.286 74.6898C261.286 74.6898 260.766 74.8198 259.896 75.001L258.553 71.145C258.722 71.0977 258.88 71.0505 259.033 70.9953C259.301 70.9087 259.581 70.8102 259.868 70.7039L261.507 74.615Z" fill="#59A5FF"/>
<g opacity="0.5">
<path opacity="0.5" d="M159.92 64.1104C161.762 64.1225 163.569 64.6241 165.154 65.5638C165.154 65.5638 169.951 66.1468 172.567 65.5638C175.182 64.9809 176.505 62.9485 177.002 63.5275C177.498 64.1065 177.51 69.5616 177.51 69.5616L175.257 75.5957L170.168 79.373L162.102 77.0491L159.431 70.2233L159.92 64.1104Z" fill="#59A5FF"/>
<path opacity="0.1" d="M177.51 69.5695L175.257 75.6036L170.168 79.3808L162.102 77.057L159.431 70.2233L159.939 64.1183H160.057C161.86 64.1642 163.621 64.6655 165.178 65.5756C165.178 65.5756 169.975 66.1586 172.59 65.5756C175.076 65.0242 176.383 63.1573 176.923 63.4724C176.955 63.4872 176.983 63.5087 177.006 63.5354C177.51 64.1104 177.51 69.5695 177.51 69.5695Z" fill="black"/>
<path opacity="0.1" d="M177.51 69.5695L175.257 75.6036L170.168 79.3808L162.102 77.057L159.431 70.2233L159.939 64.1183H160.057C160.506 66.0444 162.421 72.1257 168.518 72.5551C174.788 72.9923 176.568 65.5323 176.939 63.4763C176.97 63.4911 176.999 63.5126 177.021 63.5393C177.51 64.1105 177.51 69.5695 177.51 69.5695Z" fill="black"/>
<path opacity="0.5" d="M159.919 64.1105C159.919 64.1105 161.227 72.6141 168.498 73.1222C175.769 73.6303 177.002 63.5275 177.002 63.5275C177.002 63.5275 187.542 66.9818 189.999 73.1419C192.457 79.3021 194.289 84.2452 194.289 84.2452C194.289 84.2452 193.501 85.6237 192.615 85.7694C191.729 85.9152 185.71 90.0587 185.71 90.0587C185.71 90.0587 185.639 101.835 186.293 102.56C186.947 103.285 186.73 106.412 184.765 106.267C182.799 106.121 169.211 103.068 157.588 105.613C157.588 105.613 152.72 107.358 152.861 104.522C153.003 101.686 153.224 90.5668 153.224 90.5668C153.224 90.5668 145.882 87.3686 145.449 87.3686C145.015 87.3686 143.92 86.7935 145.082 84.899C146.244 83.0045 147.702 76.541 147.702 76.541C147.702 76.541 150.616 67.2614 159.919 64.1105Z" fill="#59A5FF"/>
<path opacity="0.1" d="M182.524 79.3808C182.524 79.3808 184.706 80.98 184.198 82.2167C183.69 83.4535 182.524 79.3808 182.524 79.3808Z" fill="black"/>
<path opacity="0.1" d="M185.722 80.9169C185.519 81.6261 185.519 82.378 185.722 83.0872V80.9169Z" fill="black"/>
<path opacity="0.1" d="M187.175 84.9069C187.175 84.9069 187.467 86.8762 186.596 87.085L187.175 84.9069Z" fill="black"/>
<path opacity="0.1" d="M157.521 78.8727C157.521 78.8727 153.452 82.4176 154.831 83.8158L157.521 78.8727Z" fill="black"/>
<path opacity="0.1" d="M154.976 87.4512C154.976 87.4512 154.909 91.1576 156.032 91.449L154.976 87.4512Z" fill="black"/>
<path opacity="0.1" d="M166.678 99.8779C166.678 99.8779 169.435 97.9913 170.168 98.0622L166.678 99.8779Z" fill="black"/>
<path opacity="0.1" d="M169.436 101.843C169.436 101.843 172.421 99.7322 173.221 99.874L169.436 101.843Z" fill="black"/>
</g>
<g opacity="0.5">
<path opacity="0.5" d="M234.267 135.657C234.267 135.657 258.049 136.784 269.873 136.09L269.613 139.21L248.691 141.967L242.499 140.061L234.267 135.657Z" fill="#59A5FF"/>
<path opacity="0.1" d="M269.889 136.09L269.629 139.21L248.71 141.967L242.515 140.061L234.267 135.657C234.267 135.657 234.755 135.685 235.626 135.72C240.786 135.945 259.365 136.669 269.566 136.114L269.889 136.09Z" fill="black"/>
<path opacity="0.5" d="M278.121 180.448C273.528 183.205 257.588 180.535 257.588 180.535L253.169 164.78L248.23 180.807C241.215 183.32 226.744 179.68 226.744 179.68L232.376 145.019L233.349 140.242L234.267 135.657L243.192 138.343C243.192 138.343 245.874 140.163 257.053 139.643C268.231 139.123 269.873 136.098 269.873 136.098C270.365 136.24 270.834 137.977 271.307 140.135C271.992 143.286 272.689 147.328 273.512 148.663C274.915 150.908 278.121 180.448 278.121 180.448Z" fill="#59A5FF"/>
<path opacity="0.1" d="M271.323 140.474C261.358 145.945 252.779 145.795 252.779 145.795C250.656 146.055 233.35 140.585 233.35 140.585L234.267 136.004L243.192 138.69C243.192 138.69 245.875 140.51 257.053 139.99C268.231 139.47 269.873 136.445 269.873 136.445C270.381 136.583 270.85 138.316 271.323 140.474Z" fill="black"/>
<path opacity="0.1" d="M269.889 136.09L269.629 139.21L248.71 141.967L242.515 140.061L234.267 135.657C234.267 135.657 234.755 135.685 235.626 135.72L243.188 137.997C243.188 137.997 245.871 139.816 257.049 139.297C265.828 138.903 268.727 136.933 269.566 136.11L269.889 136.09Z" fill="black"/>
<path opacity="0.5" d="M271.323 140.128C261.358 145.598 252.779 145.449 252.779 145.449C250.656 145.709 233.35 140.238 233.35 140.238L234.267 135.657L243.192 138.343C243.192 138.343 245.875 140.163 257.053 139.643C268.231 139.123 269.873 136.098 269.873 136.098C270.381 136.232 270.85 137.969 271.323 140.128Z" fill="#59A5FF"/>
<path opacity="0.1" d="M254.469 144.622C254.971 144.622 255.379 144.214 255.379 143.712C255.379 143.209 254.971 142.802 254.469 142.802C253.966 142.802 253.559 143.209 253.559 143.712C253.559 144.214 253.966 144.622 254.469 144.622Z" fill="black"/>
<path opacity="0.5" d="M254.469 144.275C254.971 144.275 255.379 143.868 255.379 143.365C255.379 142.863 254.971 142.455 254.469 142.455C253.966 142.455 253.559 142.863 253.559 143.365C253.559 143.868 253.966 144.275 254.469 144.275Z" stroke="#59A5FF" stroke-miterlimit="10"/>
<path opacity="0.1" d="M231.207 159.656C231.207 159.656 232.81 164.422 233.936 164.335C235.063 164.248 231.207 159.656 231.207 159.656Z" fill="black"/>
<path opacity="0.1" d="M230.167 164.335C230.167 164.335 231.163 167.194 232.203 167.671L230.167 164.335Z" fill="black"/>
<path opacity="0.1" d="M230.167 167.324C230.167 167.324 231.742 169.317 232.676 169.794L230.167 167.324Z" fill="black"/>
<path opacity="0.1" d="M272.473 149.305C272.473 149.305 273.946 151.514 272.473 151.991V149.305Z" fill="black"/>
<path opacity="0.1" d="M273.142 152.897C271.433 150.869 272.488 155.654 272.488 155.654C272.488 155.654 273.579 153.417 273.142 152.897Z" fill="black"/>
<path opacity="0.1" d="M274.005 155.367C274.005 155.367 271.405 159.222 271.925 159.656L274.005 155.367Z" fill="black"/>
<path opacity="0.1" d="M239.616 149.388C236.429 149.388 233.105 147.946 232.92 147.859L233.062 147.54C233.125 147.572 239.486 150.333 242.928 148.261C244.228 147.473 244.957 146.087 245.098 144.125L245.445 144.153C245.295 146.233 244.508 147.698 243.105 148.556C242.039 149.146 240.833 149.433 239.616 149.388Z" fill="black"/>
<path opacity="0.5" d="M239.616 149.041C236.429 149.041 233.105 147.599 232.92 147.513L233.062 147.198C233.125 147.225 239.486 149.986 242.928 147.914C244.228 147.127 244.957 145.74 245.098 143.779L245.445 143.806C245.295 145.886 244.508 147.351 243.105 148.21C242.039 148.799 240.833 149.086 239.616 149.041Z" fill="#59A5FF"/>
<path opacity="0.1" d="M265.777 149.648C264.961 149.659 264.153 149.485 263.414 149.139C260.83 147.895 260.412 144.846 260.393 144.716L260.739 144.673C260.739 144.704 261.153 147.67 263.567 148.828C265.718 149.864 268.77 149.222 272.626 146.859L272.803 147.154C270.058 148.816 267.707 149.648 265.777 149.648Z" fill="black"/>
<path opacity="0.5" d="M265.777 149.301C264.961 149.313 264.153 149.139 263.414 148.793C260.83 147.548 260.412 144.5 260.393 144.37L260.739 144.326C260.739 144.358 261.153 147.324 263.567 148.482C265.718 149.518 268.77 148.876 272.626 146.512L272.803 146.808C270.058 148.47 267.707 149.301 265.777 149.301Z" fill="#59A5FF"/>
</g>
<path d="M161.928 136.189C161.928 136.189 166.399 142.432 169.435 141.825C172.472 141.219 172.771 140.553 175.47 136.189L177.683 141.282L175.076 147.584L171.988 151.581L165.442 150.553L163.323 143.401L161.928 136.189Z" fill="#59A5FF"/>
<path opacity="0.1" d="M177.683 141.278L175.076 147.58L171.988 151.577L165.442 150.549L163.323 143.397L161.928 136.189C161.928 136.189 162.322 136.732 162.937 137.481C164.437 139.273 167.293 142.251 169.435 141.813C172.429 141.215 172.764 140.557 175.363 136.354L175.47 136.177L177.683 141.278Z" fill="black"/>
<path opacity="0.1" d="M177.683 141.278L175.076 147.58L171.988 151.577L165.442 150.549L163.323 143.397L161.928 136.189C161.928 136.189 162.322 136.732 162.937 137.481C163.913 140.632 166.013 145.685 169.435 145.642C173.299 145.598 174.859 139.198 175.363 136.366L175.47 136.189L177.683 141.278Z" fill="black"/>
<path d="M159.565 136.004C159.565 136.004 158.049 135.823 158.836 137.701C159.624 139.58 161.077 145.76 160.353 147.032C159.628 148.304 159.99 151.759 156.839 152.428L157.745 156.001C157.745 156.001 157.926 163.878 157.564 165.032C157.202 166.186 157.139 172.543 157.261 173.209C157.383 173.875 157.324 178.239 156.839 178.424C156.355 178.609 156.052 180.724 157.627 181.086C159.203 181.449 165.926 181.634 167.139 181.996C168.352 182.359 176.954 181.996 176.954 181.996C176.954 181.996 180.59 181.512 181.5 181.208C182.409 180.905 182.591 180.18 182.287 178.786C181.984 177.392 180.59 167.273 180.893 166.001C181.196 164.729 181.259 152.306 181.259 152.306C181.259 152.306 178.896 151.518 178.896 149.214C178.896 146.91 177.986 140.73 179.865 136.855C179.865 136.855 178.349 135.815 178.108 136C177.868 136.185 175.58 135.519 175.58 135.519C175.58 135.519 174.398 146.063 169.455 146.122C164.512 146.181 162.31 135.519 162.31 135.519C162.31 135.519 162.354 134.55 159.565 136.004Z" fill="#59A5FF"/>
<path opacity="0.1" d="M166.714 169.818C166.714 169.818 167.734 172.303 169.436 172.665C171.137 173.028 166.714 169.818 166.714 169.818Z" fill="black"/>
<path opacity="0.1" d="M165.139 171.755C165.139 171.755 168.431 174.422 168.29 174.97L165.139 171.755Z" fill="black"/>
<path opacity="0.1" d="M158.533 156.001C158.533 156.001 161.141 157.757 161.141 159.03L158.533 156.001Z" fill="black"/>
<path opacity="0.1" d="M160.29 161.515C160.29 161.515 159.565 158.97 159.081 158.427L160.29 161.515Z" fill="black"/>
<path opacity="0.1" d="M159.081 162.484C159.081 162.484 160.172 164.666 160.29 165.272L159.081 162.484Z" fill="black"/>
<path opacity="0.1" d="M180.228 158.061C180.228 158.061 176.837 159.093 177.136 160.365L180.228 158.061Z" fill="black"/>
<path opacity="0.1" d="M177.12 169.818C177.12 169.818 181.563 164.666 180.228 164.788C178.893 164.91 177.12 169.818 177.12 169.818Z" fill="black"/>
<g opacity="0.1">
<path opacity="0.1" d="M178.893 149.214C178.893 148.151 178.7 146.26 178.676 144.153C178.652 146.571 178.893 148.809 178.893 150.002C178.893 152.255 181.149 153.054 181.256 153.09C181.256 152.598 181.256 152.302 181.256 152.302C181.256 152.302 178.893 151.518 178.893 149.214Z" fill="black"/>
<path opacity="0.1" d="M182.276 179.574C182.322 179.781 182.358 179.99 182.382 180.2C182.433 179.726 182.397 179.247 182.276 178.786C182.016 177.604 180.96 170.018 180.85 167.057C180.732 169.081 182 178.25 182.276 179.574Z" fill="black"/>
<path opacity="0.1" d="M157.206 171.716C157.206 169.554 157.328 166.572 157.564 165.808C157.757 165.194 157.797 162.681 157.793 160.459C157.793 162.452 157.734 164.477 157.564 165.02C157.297 165.879 157.194 169.573 157.206 171.716Z" fill="black"/>
<path opacity="0.1" d="M159.565 136.792C162.35 135.338 162.291 136.307 162.291 136.307C162.291 136.307 164.473 146.973 169.436 146.91C174.399 146.847 175.58 136.307 175.58 136.307C175.58 136.307 177.884 136.973 178.125 136.788C178.365 136.602 179.172 137.181 179.617 137.465C179.7 137.256 179.787 137.051 179.885 136.855C179.885 136.855 178.369 135.815 178.125 136C177.88 136.185 175.58 135.519 175.58 135.519C175.58 135.519 174.399 146.063 169.455 146.122C164.512 146.181 162.311 135.519 162.311 135.519C162.311 135.519 162.37 134.55 159.585 136.004C159.585 136.004 158.352 135.862 158.695 137.221C158.892 136.713 159.565 136.792 159.565 136.792Z" fill="black"/>
<path opacity="0.1" d="M156.836 179.211C157.23 179.066 157.336 176.368 157.312 174.879C157.293 176.376 157.155 178.302 156.836 178.424C156.517 178.546 156.363 179.211 156.485 179.853C156.548 179.515 156.674 179.267 156.836 179.211Z" fill="black"/>
<path opacity="0.1" d="M160.353 147.82C160.546 147.303 160.609 146.748 160.538 146.201C160.535 146.488 160.472 146.771 160.353 147.032C159.625 148.304 159.987 151.759 156.836 152.428L157.025 153.169C159.971 152.405 159.64 149.068 160.353 147.82Z" fill="black"/>
</g>
<path d="M177.857 210.095C176.368 212.805 161.255 210.095 161.255 210.095L161.294 209.823L161.594 207.724H177.518L177.821 209.819L177.857 210.095Z" fill="#59A5FF"/>
<path opacity="0.1" d="M177.857 210.095C176.368 212.805 161.255 210.095 161.255 210.095L161.294 209.823C162.019 209.823 172.953 209.563 177.837 209.823L177.857 210.095Z" fill="black"/>
<path d="M161.255 210.095C161.255 210.095 158.545 210.772 154.342 222.155C150.14 233.538 148.651 248.245 148.651 248.245C148.651 248.245 146.288 252.247 156.375 252.515C156.375 252.515 155.563 255.158 161.255 254.752C166.946 254.346 166.127 254.35 166.127 254.35C166.127 254.35 169.786 252.046 171.413 252.452C173.039 252.858 174.055 252.995 175.816 254.484C177.577 255.973 183.205 255.366 183.272 254.216C183.317 253.651 183.317 253.084 183.272 252.519C183.272 252.519 191.878 253.062 190.251 246.827C188.625 240.592 187.27 230.36 187.27 230.36C187.27 230.36 182.866 210.371 177.848 210.099C172.831 209.827 161.255 210.095 161.255 210.095Z" fill="#59A5FF"/>
<path opacity="0.1" d="M159.441 217.962L156.253 252.524L156.524 252.549L159.712 217.987L159.441 217.962Z" fill="black"/>
<path opacity="0.1" d="M166.122 217.936L165.982 254.326L166.254 254.327L166.394 217.937L166.122 217.936Z" fill="black"/>
<path opacity="0.1" d="M174.626 217.929L174.354 217.939L175.713 254.465L175.985 254.455L174.626 217.929Z" fill="black"/>
<path opacity="0.1" d="M183.142 252.519C182.67 231.703 179.125 217.452 179.082 217.326L179.345 217.259C179.381 217.401 182.945 231.679 183.414 252.531L183.142 252.519Z" fill="black"/>
<path opacity="0.1" d="M161.728 212.127C161.728 212.127 161.255 212.399 161.728 213.703V212.127Z" fill="black"/>
<path opacity="0.1" d="M163.086 212.127C163.086 212.127 161.798 212.939 163.086 214.298V212.127Z" fill="black"/>
<path opacity="0.1" d="M175.146 212.127C175.146 212.127 176.907 213.821 176.501 214.298L175.146 212.127Z" fill="black"/>
<path opacity="0.1" d="M176.564 211.722C176.564 211.722 176.84 213.754 177.856 214.298L176.564 211.722Z" fill="black"/>
<g opacity="0.5">
<path opacity="0.5" d="M248.493 208.472C248.493 208.472 255.142 205.825 258.017 209.055C260.892 212.285 256.048 216.216 256.048 216.216L254.015 220.273L249.234 219.749L248.107 214.14L248.493 208.472Z" fill="#59A5FF"/>
<path opacity="0.1" d="M256.048 216.196L254.015 220.253L249.234 219.745L248.107 214.14L248.501 208.472L248.608 208.433C249.451 208.122 255.142 206.137 257.864 208.87C257.92 208.922 257.974 208.977 258.025 209.035C260.892 212.249 256.048 216.196 256.048 216.196Z" fill="black"/>
<path opacity="0.1" d="M256.048 216.196L254.015 220.253L249.234 219.745L248.107 214.14L248.501 208.472L248.608 208.433C249.431 212.943 251.629 214.845 251.999 215.129L252.054 215.168L253.405 215.058C256.032 213.608 257.419 210.162 257.864 208.858C257.92 208.91 257.974 208.966 258.025 209.024C260.892 212.249 256.048 216.196 256.048 216.196Z" fill="black"/>
<path opacity="0.5" d="M267.659 231.644C267.659 231.644 266.194 250.305 266.592 252.558C266.99 254.811 265.745 254.981 265.745 254.981C265.745 254.981 260.443 256.162 259.443 255.374C258.443 254.587 256.737 254.433 256.737 254.433C256.737 254.433 252.798 255.335 251.042 254.662C249.285 253.988 246.363 254.268 246.363 254.268C246.363 254.268 244.11 255.623 243.487 255.339C242.865 255.055 242.077 255.17 240.273 254.666C238.469 254.161 237.453 253.704 238.41 250.605C239.367 247.505 238.528 237.694 238.469 236.508C238.41 235.322 237.851 232.451 237.059 229.024C236.268 225.598 238.41 226.319 238.41 226.319C243.432 223.727 241.345 218.65 240.557 216.397C239.769 214.144 241.006 214.034 241.624 214.034C242.243 214.034 244.614 212.005 244.614 212.005L245.575 211.143L248.505 208.512C249.234 213.439 251.597 215.507 251.991 215.814L252.046 215.857L253.397 215.743C256.666 213.943 258.017 209.047 258.017 209.047C258.411 209.717 259.289 210.481 260.27 211.19C261.554 212.098 262.891 212.927 264.276 213.671C266.639 215.081 264.898 216.491 264.898 216.491C262.023 226.299 266.08 226.732 266.08 226.732C269.069 227.173 267.659 231.644 267.659 231.644Z" fill="#59A5FF"/>
<path opacity="0.1" d="M245.504 214.053C245.504 214.053 244.657 214.506 244.657 215.011L245.504 214.053Z" fill="black"/>
<path opacity="0.1" d="M246.012 215.01C246.012 215.01 244.886 216.192 245.083 216.535L246.012 215.01Z" fill="black"/>
<path opacity="0.1" d="M246.012 216.539C246.012 216.539 245.165 217.441 245.504 217.949L246.012 216.539Z" fill="black"/>
<path opacity="0.1" d="M251.652 216.491L248.107 219.914C247.977 216.109 246.138 213.065 245.232 211.781L248.162 209.15C248.879 214.116 251.262 216.184 251.652 216.491Z" fill="black"/>
<path opacity="0.5" d="M251.991 215.814L248.446 219.241C248.32 215.432 246.477 212.391 245.575 211.103L248.505 208.472C249.234 213.439 251.597 215.507 251.991 215.814Z" fill="#59A5FF"/>
<path opacity="0.1" d="M260.609 211.856C259.191 214.069 256.556 219.914 256.556 219.914L253.736 216.421C257.005 214.617 258.356 209.725 258.356 209.725C258.75 210.379 259.628 211.143 260.609 211.856Z" fill="black"/>
<path opacity="0.5" d="M260.262 211.178C258.848 213.396 256.209 219.241 256.209 219.241L253.397 215.751C256.666 213.951 258.017 209.055 258.017 209.055C258.411 209.705 259.289 210.469 260.262 211.178Z" fill="#59A5FF"/>
<path opacity="0.1" d="M258.19 247.316C258.19 247.316 257.588 252.436 257.241 252.728L258.19 247.316Z" fill="black"/>
<path opacity="0.1" d="M263.149 248.218C263.149 248.218 263.827 251.881 263.543 252.728L263.149 248.218Z" fill="black"/>
<path opacity="0.1" d="M248.718 248.442C248.718 248.442 248.099 251.881 248.718 252.275V248.442Z" fill="black"/>
<path opacity="0.1" d="M245.059 247.934C245.059 247.934 244.547 251.995 244.665 252.728L245.059 247.934Z" fill="black"/>
<path opacity="0.1" d="M263.996 228.146C263.996 228.146 262.421 229.387 262.531 229.722L263.996 228.146Z" fill="black"/>
<path opacity="0.1" d="M265.123 228.938C265.123 228.938 262.106 231.474 263.614 231.191C265.123 230.907 265.123 228.938 265.123 228.938Z" fill="black"/>
</g>
<path d="M97.9875 156.276L98.0072 156.249L97.9718 156.221L97.7591 156.079L97.8024 156.111C97.6499 156.023 97.4699 155.995 97.2978 156.033C97.1258 156.071 96.9742 156.172 96.8729 156.316L96.7862 156.438L92.0007 163.323L91.1657 164.548C88.6409 163.787 84.5407 166.986 82.465 168.821C82.3351 168.935 82.213 169.042 82.1027 169.144C81.9373 168.774 81.8388 168.538 81.8388 168.538C81.7364 169.664 77.7583 171.354 76.8287 171.968C76.4065 172.223 75.9331 172.382 75.4423 172.433C75.5762 168.152 72.2638 163.646 72.2638 163.646L64.1697 153.346C63.8719 151.483 64.161 149.574 64.9968 147.883C65.0638 147.749 65.1308 147.615 65.2056 147.489H65.245C64.9388 148.354 64.7674 149.262 64.7369 150.179C64.7566 150.876 65.4025 154.256 66.3124 154.118C66.4026 154.127 66.4936 154.111 66.5756 154.073C66.6575 154.034 66.7272 153.973 66.7771 153.897C67.5019 153.054 67.5649 151.621 67.5294 150.293C67.5169 150.684 67.4734 151.072 67.3995 151.455C67.4585 150.353 67.3325 149.187 67.3325 148.356C67.3325 148.025 67.3325 147.698 67.3561 147.367H67.4546C67.4546 147.493 67.4546 147.627 67.4546 147.761C67.4546 147.623 67.4546 147.489 67.4546 147.367H67.557C69.3725 147.035 71.0736 146.246 72.5001 145.075C72.8523 145.06 73.1981 144.976 73.5173 144.827C73.8365 144.677 74.1227 144.466 74.3592 144.204C74.4455 144.492 74.4587 144.797 74.3975 145.091C74.3363 145.386 74.2026 145.66 74.0086 145.89C75.0918 145.839 76.0095 144.996 76.427 144.007C76.7847 142.998 76.8902 141.916 76.7342 140.856C76.5785 139.796 76.5008 138.726 76.5018 137.654C76.5765 137.076 76.6081 136.492 76.5964 135.909C76.5789 135.731 76.5473 135.555 76.5018 135.381H76.5333C76.6371 135.384 76.7403 135.365 76.837 135.327C76.9336 135.29 77.0219 135.233 77.0966 135.161C77.5456 134.814 77.6913 134.137 77.8055 133.617C78.1164 132.42 78.257 131.186 78.223 129.95C78.1994 130.324 78.1521 130.702 78.097 131.076C78.1955 129.659 77.9985 128.28 77.0611 127.252C76.4152 126.547 75.5132 126.133 74.6467 125.72C74.3368 125.609 74.064 125.414 73.8589 125.157C73.7058 124.853 73.6224 124.52 73.6147 124.18C73.3115 122.108 71.3618 120.666 69.42 119.847C66.9229 118.76 63.9058 118.295 61.5229 119.587C60.3413 120.213 59.4354 121.194 58.3719 121.994C57.0406 123.006 55.5045 123.715 54.0827 124.597C52.6608 125.48 51.3256 126.598 50.6284 128.118C49.5847 130.482 50.3685 133.16 50.4984 135.724C50.7072 139.761 49.0451 143.995 45.7523 146.359C45.3577 146.601 45.0051 146.905 44.7085 147.261C44.5638 147.441 44.4779 147.661 44.4624 147.891C44.4469 148.121 44.5026 148.351 44.6219 148.549C44.7912 148.769 45.0591 148.895 45.2442 149.104C45.6184 149.529 45.5435 150.179 45.3978 150.723C44.9196 152.501 43.9665 154.116 42.6407 155.394C42.6998 155.812 43.2158 155.977 43.6372 156.04C44.7522 156.204 45.8778 156.286 47.0048 156.284H47.4893C47.4381 156.414 47.3829 156.552 47.3278 156.698C46.7173 158.305 45.9256 160.778 46.1895 162.291C46.5834 164.678 47.8437 175.592 47.2214 177.506C46.5991 179.42 48.2219 193.3 48.2219 193.3C48.2219 193.3 48.4385 194.372 48.8127 195.971C47.8398 198.263 46.7291 200.807 46.1737 201.828C45.0551 203.872 45.6066 214.309 49.4626 218.949C49.4626 218.949 51.038 221.202 50.6442 222.017C50.2503 222.833 50.7151 224.27 50.7151 224.27L51.3256 237.776C51.3125 239.156 51.2178 240.535 51.042 241.904C49.3956 243.94 46.8591 246.91 45.6656 247.395C43.8184 248.147 30.0408 264.859 30.0408 264.859C30.0408 264.859 30.151 265.06 30.3677 265.387L29.9738 265.836L27.3309 268.9L27.1222 269.14C26.6259 269.046 23.3213 268.447 20.7021 268.258H20.4421V268.211C19.5241 268.105 18.5959 268.131 17.685 268.285C17.5127 268.317 17.3537 268.4 17.2281 268.522C16.334 269.617 15.8535 286.805 15.8535 286.805C15.8535 286.805 16.8067 295.411 19.7922 295.892C19.9444 295.945 20.1038 295.974 20.2649 295.979H20.3949C22.5218 295.821 23.4986 294.604 23.9397 293.769C24.0702 293.52 24.1694 293.255 24.2351 292.981C24.2351 292.981 23.8885 291.449 24.818 289.334C25.7476 287.219 27.4845 283.497 27.4845 283.497C27.4845 283.497 30.6355 280.184 30.0723 278.577C30.1589 278.447 30.2613 278.306 30.3716 278.144C31.5532 276.458 33.948 273.13 35.8858 270.909C36.0119 270.759 36.1379 270.621 36.2797 270.483C36.9846 270.781 37.7224 270.994 38.4775 271.117C38.4775 271.117 41.4394 269.959 42.5383 267.368C43.007 266.265 44.8464 264.311 46.8039 262.433L46.7409 262.933L46.674 279.373C47.3105 279.81 47.9886 280.183 48.6984 280.488V280.881C48.7123 283.224 48.5702 285.565 48.2731 287.888L48.214 288.255C47.9698 288.081 47.7571 288.022 47.6232 288.156C47.0166 288.771 46.6385 292.694 46.6031 294.502C46.6031 294.561 46.6031 294.62 46.6031 294.683C46.5046 296.487 45.4766 299.11 48.5724 299.244C50.8884 299.342 60.873 299.492 66.2139 299.571C69.0913 299.625 71.8907 298.633 74.0913 296.778C75.7889 295.325 76.8169 293.596 74.5049 292.323C74.3631 292.245 74.2134 292.17 74.048 292.095L68.9277 291.307L60.1798 286.841C60.1798 286.841 60.1286 284.139 59.077 284.588C58.7645 284.656 58.4652 284.774 58.1908 284.938C58.1395 284.84 58.0844 284.734 58.0332 284.623C57.3207 283.211 56.951 281.652 56.954 280.07C56.954 279.928 56.954 279.783 56.9737 279.637C57.2299 279.403 57.4719 279.155 57.6984 278.892C57.6984 278.892 57.6314 272.752 58.3207 271.594C59.01 270.436 61.1448 258.699 61.1448 258.699C61.1448 258.699 61.2117 256.517 62.5903 255.221C63.9688 253.925 63.4844 250.171 63.4844 250.171C63.4844 250.171 65.4143 249.147 66.0327 245.807C66.6511 242.467 68.652 235.173 68.652 235.173C68.652 235.173 72.7837 224.392 72.5119 217.575C72.2401 210.757 72.9058 207.204 72.9058 207.204L73.7644 191.355V191.11C74.1071 191.37 74.3395 191.583 74.3395 191.583C74.3395 191.583 74.3395 191.52 74.3395 191.41C74.4655 191.516 74.5364 191.583 74.5364 191.583C74.5364 191.583 74.9776 184.391 74.8279 181.539C77.2384 180.72 80.9093 179.373 81.1298 178.688C81.437 177.667 85.5727 174.442 85.5727 174.442C85.4832 174.427 85.3976 174.395 85.3206 174.347C85.4506 174.288 85.5845 174.217 85.7145 174.142C88.4243 172.693 93.458 168.455 92.6112 165.871L98.1254 157.958C98.2981 157.704 98.3786 157.399 98.3535 157.093C98.3285 156.787 98.1993 156.499 97.9875 156.276Z" fill="url(#paint1_linear)"/>
<path d="M85.1589 175.387C84.7565 175.639 84.308 175.809 83.8394 175.887C82.1182 175.938 80.6885 171.279 80.6885 171.279C80.6885 171.279 81.1769 170.783 81.9567 170.097C84.2648 168.045 89.1055 164.256 91.3742 166.375C93.9344 168.742 88.1405 173.784 85.1589 175.387Z" fill="#ECB4B6"/>
<path d="M58.9939 286.51L52.6408 293.367C52.6408 293.367 46.7642 293.434 47.9143 290.193C48.1441 289.49 48.3076 288.767 48.4027 288.034C48.6922 285.732 48.8304 283.414 48.8163 281.094C48.8163 279.574 48.7927 278.506 48.7927 278.506C48.7927 278.506 58.0447 274.453 57.0994 278.676C56.9818 279.204 56.9185 279.742 56.9104 280.283C56.9066 281.848 57.2681 283.392 57.9659 284.793C58.2515 285.397 58.5958 285.973 58.9939 286.51Z" fill="#ECB4B6"/>
<path opacity="0.1" d="M58.9939 286.51L52.6408 293.367C52.6408 293.367 46.7642 293.434 47.9143 290.193C48.1441 289.49 48.3076 288.767 48.4027 288.034C49.2417 288.684 50.4469 290.598 50.4469 290.598C50.4469 290.598 54.4999 291.78 55.6145 288.235C56.2368 286.266 57.2215 285.269 57.9778 284.793C58.2596 285.397 58.5999 285.972 58.9939 286.51Z" fill="black"/>
<path d="M73.7325 296.837C71.5785 298.672 68.826 299.653 65.9969 299.594C60.7584 299.519 50.9707 299.366 48.698 299.271C45.6574 299.137 46.6657 296.542 46.7641 294.754C46.7641 294.691 46.7641 294.635 46.7641 294.576C46.7996 292.784 47.158 288.901 47.7646 288.294C48.3711 287.688 50.4468 290.996 50.4468 290.996C50.4468 290.996 54.4998 292.178 55.6144 288.633C56.7291 285.088 58.9938 284.745 58.9938 284.745C60.0218 284.3 60.0731 286.975 60.0731 286.975L68.6516 291.398L73.6852 292.186C73.8467 292.26 73.9925 292.335 74.1303 292.41C76.4069 293.686 75.3986 295.396 73.7325 296.837Z" fill="#C17174"/>
<path opacity="0.25" d="M57.8834 290.019C58.0879 290.019 58.2537 289.854 58.2537 289.649C58.2537 289.445 58.0879 289.279 57.8834 289.279C57.6789 289.279 57.5132 289.445 57.5132 289.649C57.5132 289.854 57.6789 290.019 57.8834 290.019Z" fill="white"/>
<path opacity="0.25" d="M61.3654 291.744C61.5698 291.744 61.7356 291.579 61.7356 291.374C61.7356 291.17 61.5698 291.004 61.3654 291.004C61.1609 291.004 60.9951 291.17 60.9951 291.374C60.9951 291.579 61.1609 291.744 61.3654 291.744Z" fill="white"/>
<path opacity="0.25" d="M63.1534 292.544C63.3579 292.544 63.5237 292.378 63.5237 292.174C63.5237 291.969 63.3579 291.804 63.1534 291.804C62.949 291.804 62.7832 291.969 62.7832 292.174C62.7832 292.378 62.949 292.544 63.1534 292.544Z" fill="white"/>
<path opacity="0.25" d="M66.8678 293.97C67.0723 293.97 67.238 293.804 67.238 293.6C67.238 293.395 67.0723 293.229 66.8678 293.229C66.6633 293.229 66.4976 293.395 66.4976 293.6C66.4976 293.804 66.6633 293.97 66.8678 293.97Z" fill="white"/>
<path opacity="0.25" d="M64.9772 293.363C65.1816 293.363 65.3474 293.198 65.3474 292.993C65.3474 292.789 65.1816 292.623 64.9772 292.623C64.7727 292.623 64.6069 292.789 64.6069 292.993C64.6069 293.198 64.7727 293.363 64.9772 293.363Z" fill="white"/>
<path d="M73.7325 296.837C71.5785 298.672 68.826 299.653 65.9969 299.594C60.7584 299.52 50.9707 299.366 48.698 299.271C45.6574 299.137 46.6657 296.542 46.7641 294.754L65.8551 295.935C65.8551 295.935 73.6734 294.754 74.1264 292.422C76.4069 293.686 75.3986 295.396 73.7325 296.837Z" fill="#C17174"/>
<path opacity="0.25" d="M73.7325 296.837C71.5785 298.672 68.826 299.653 65.9969 299.594C60.7584 299.52 50.9707 299.366 48.698 299.271C45.6574 299.137 46.6657 296.542 46.7641 294.754L65.8551 295.935C65.8551 295.935 73.6734 294.754 74.1264 292.422C76.4069 293.686 75.3986 295.396 73.7325 296.837Z" fill="white"/>
<path d="M38.1937 269.286C37.4912 269.859 36.8498 270.503 36.2795 271.208C34.385 273.406 32.0414 276.722 30.8795 278.369C30.4305 279.015 30.1587 279.42 30.1587 279.42L27.6222 279.046C27.6222 279.046 24.8887 274.859 24.9242 274.761C24.9596 274.662 27.0905 270.164 27.0905 270.164L27.9137 269.199L30.5093 266.166L31.6909 264.796C31.6909 264.796 40.4821 267.632 38.1937 269.286Z" fill="#ECB4B6"/>
<path opacity="0.1" d="M30.8795 278.376C30.4305 279.022 30.1587 279.428 30.1587 279.428L27.6222 279.054C27.6222 279.054 24.8887 274.867 24.9242 274.769C24.9596 274.67 27.0905 270.164 27.0905 270.164L27.9137 269.199L28.1815 269.25H28.8274C26.5627 271.614 28.9929 276.813 28.9929 276.813C28.9929 276.813 30.0406 276.911 30.8795 278.376Z" fill="black"/>
<path d="M28.0474 283.67C28.0474 283.67 26.3577 287.317 25.4439 289.413C24.5302 291.508 24.8689 293.025 24.8689 293.025C24.8046 293.298 24.708 293.562 24.5814 293.812C24.2575 294.456 23.7647 295 23.1555 295.386C22.5464 295.772 21.8439 295.985 21.1232 296.002H20.9577C17.8777 295.923 16.9009 286.983 16.9009 286.983C16.9009 286.983 17.3735 269.963 18.2519 268.865C18.3726 268.742 18.5279 268.66 18.6969 268.628C19.5932 268.473 20.5072 268.448 21.4107 268.553C24.1954 268.754 27.7757 269.44 27.7757 269.44H28.4177C26.1529 271.803 28.5831 277.006 28.5831 277.006C28.5831 277.006 29.6662 277.104 30.5091 278.625C31.352 280.145 28.0474 283.67 28.0474 283.67Z" fill="#C17174"/>
<path opacity="0.25" d="M24.3292 278.975C24.5337 278.975 24.6995 278.809 24.6995 278.605C24.6995 278.4 24.5337 278.235 24.3292 278.235C24.1247 278.235 23.959 278.4 23.959 278.605C23.959 278.809 24.1247 278.975 24.3292 278.975Z" fill="white"/>
<path opacity="0.25" d="M24.1442 281.925C24.3486 281.925 24.5144 281.76 24.5144 281.555C24.5144 281.351 24.3486 281.185 24.1442 281.185C23.9397 281.185 23.7739 281.351 23.7739 281.555C23.7739 281.76 23.9397 281.925 24.1442 281.925Z" fill="white"/>
<path d="M24.3333 293.737C24.0095 294.382 23.5166 294.926 22.9075 295.311C22.2984 295.697 21.5959 295.91 20.8751 295.927H20.7136C17.6336 295.849 16.6528 286.908 16.6528 286.908C16.6528 286.908 17.1255 269.889 18.0038 268.79C18.1246 268.667 18.2799 268.585 18.4489 268.553C19.3452 268.398 20.2592 268.373 21.1627 268.478C21.1115 271.539 20.9657 281.208 21.1627 282.169C21.3596 283.13 23.1044 291.173 24.3333 293.737Z" fill="#C17174"/>
<path opacity="0.25" d="M24.3333 293.737C24.0095 294.382 23.5166 294.926 22.9075 295.311C22.2984 295.697 21.5959 295.91 20.8751 295.927H20.7136C17.6336 295.849 16.6528 286.908 16.6528 286.908C16.6528 286.908 17.1255 269.889 18.0038 268.79C18.1246 268.667 18.2799 268.585 18.4489 268.553C19.3452 268.398 20.2592 268.373 21.1627 268.478C21.1115 271.539 20.9657 281.208 21.1627 282.169C21.3596 283.13 23.1044 291.173 24.3333 293.737Z" fill="white"/>
<path d="M20.7097 295.935C17.6297 295.856 16.6489 286.916 16.6489 286.916C16.6489 286.916 17.1216 269.896 17.9999 268.797C18.1207 268.675 18.276 268.593 18.445 268.561C19.0909 269.522 19.6581 271.649 19.1461 276.328C18.185 285.194 19.343 285.754 19.343 285.754C19.343 285.754 20.7885 293.288 20.7097 295.935Z" fill="#C17174"/>
<path opacity="0.1" d="M20.7097 295.935C17.6297 295.856 16.6489 286.916 16.6489 286.916C16.6489 286.916 17.1216 269.896 17.9999 268.797C18.1207 268.675 18.276 268.593 18.445 268.561C19.0909 269.522 19.6581 271.649 19.1461 276.328C18.185 285.194 19.343 285.754 19.343 285.754C19.343 285.754 20.7885 293.288 20.7097 295.935Z" fill="black"/>
<path opacity="0.1" d="M85.1589 175.387C84.7565 175.639 84.308 175.809 83.8394 175.887C82.1182 175.938 80.6885 171.279 80.6885 171.279C80.6885 171.279 81.1769 170.783 81.9567 170.097C82.52 171.358 84.0718 174.757 85.1589 175.387Z" fill="black"/>
<path d="M74.1149 173.709C74.1149 173.709 75.5328 173.811 76.4426 173.205C77.3525 172.598 81.2558 170.924 81.3582 169.81C81.3582 169.81 83.6859 175.482 85.0054 175.686C85.0054 175.686 80.9525 178.877 80.6492 179.889C80.3459 180.901 72.4409 183.387 72.4409 183.387L74.1149 173.709Z" fill="#FF748E"/>
<path opacity="0.1" d="M74.1149 173.709C74.1149 173.709 75.5328 173.811 76.4426 173.205C77.3525 172.598 81.2558 170.924 81.3582 169.81C81.3582 169.81 83.6859 175.482 85.0054 175.686C85.0054 175.686 80.9525 178.877 80.6492 179.889C80.3459 180.901 72.4409 183.387 72.4409 183.387L74.1149 173.709Z" fill="black"/>
<path opacity="0.1" d="M38.1937 269.286C37.4913 269.859 36.8498 270.503 36.2795 271.208C33.2231 269.928 31.2537 267.313 30.5054 266.166L31.687 264.796C31.687 264.796 40.4821 267.632 38.1937 269.286Z" fill="black"/>
<path d="M52.6488 240.565C52.6488 240.565 47.6939 247.186 45.8821 247.93C44.0703 248.675 30.5645 265.221 30.5645 265.221C30.5645 265.221 33.4673 270.558 38.8042 271.432C38.8042 271.432 41.7071 270.286 42.7902 267.718C43.8734 265.15 52.381 257.895 52.381 257.895L52.6488 240.565Z" fill="#5E5A6B"/>
<path opacity="0.1" d="M52.6488 240.565C52.6488 240.565 47.6939 247.186 45.8821 247.93C44.0703 248.675 30.5645 265.221 30.5645 265.221C30.5645 265.221 33.4673 270.558 38.8042 271.432C38.8042 271.432 41.7071 270.286 42.7902 267.718C43.8734 265.15 52.381 257.895 52.381 257.895L52.6488 240.565Z" fill="black"/>
<path opacity="0.1" d="M37.6382 262.72C39.1373 262.877 40.6489 262.877 42.148 262.72C44.8145 262.464 42.8058 264.087 37.6382 262.72Z" fill="black"/>
<path opacity="0.1" d="M36.4214 264.441C36.4214 264.441 39.9662 266.466 41.3369 265.454C42.7076 264.441 40.0174 266.43 36.4214 264.441Z" fill="black"/>
<path opacity="0.1" d="M57.1075 278.676C56.9899 279.204 56.9266 279.742 56.9185 280.283C54.1811 282.768 50.8844 282 48.8244 281.094C48.8244 279.574 48.8008 278.506 48.8008 278.506C48.8008 278.506 58.0528 274.438 57.1075 278.676Z" fill="black"/>
<path d="M73.5201 190.563L73.4216 192.43L72.5787 208.126C72.5787 208.126 71.9012 211.639 72.1848 218.39C72.4684 225.141 68.3879 235.838 68.3879 235.838C68.3879 235.838 66.4186 243.066 65.8199 246.374C65.2212 249.683 63.3227 250.707 63.3227 250.707C63.3227 250.707 63.7954 254.421 62.4444 255.705C61.0934 256.989 61.0265 259.148 61.0265 259.148C61.0265 259.148 58.9311 270.767 58.2694 271.917C57.6077 273.067 57.6589 279.144 57.6589 279.144C53.2711 284.344 46.855 279.617 46.855 279.617L46.9219 263.338C46.9219 263.338 48.7456 248.344 50.0965 246.248C51.4475 244.153 51.4475 238.414 51.4475 238.414L50.8449 225.023C50.8449 225.023 50.3644 223.605 50.7779 222.793C51.1915 221.982 49.6239 219.757 49.6239 219.757C45.8388 215.16 45.2913 204.825 46.3981 202.82C47.5049 200.815 50.7779 192.69 50.7779 192.69L55.2956 190.055L63.4606 190.295L73.5201 190.563Z" fill="#5E5A6B"/>
<path opacity="0.1" d="M54.3071 270.164C54.3071 270.164 55.3745 273.863 56.2332 274.268C57.0918 274.674 54.3071 270.164 54.3071 270.164Z" fill="black"/>
<path opacity="0.1" d="M55.7759 257.856C55.7759 257.856 58.533 260.038 59.7146 260.034C60.8962 260.03 55.7759 257.856 55.7759 257.856Z" fill="black"/>
<path d="M72.4407 166.415V170.873L69.4985 169.605L66.5641 168.341L60.1755 162.058C60.1755 162.058 55.1221 158.777 52.4202 155.788C50.8762 154.082 50.1003 152.472 51.4591 151.621C52.1177 151.19 52.7129 150.669 53.2276 150.073C54.5856 148.472 55.7662 146.729 56.7488 144.874C56.7922 144.799 56.8355 144.724 56.8749 144.649C58.1904 142.235 59.0609 140.175 59.0609 140.175C59.0609 140.175 62.7632 141.356 65.1422 143.042C65.3352 143.176 65.5164 143.314 65.6897 143.456C67.0171 144.543 67.6788 145.819 66.4538 147.064C66.1392 147.389 65.8483 147.737 65.5834 148.104C65.3856 148.376 65.2041 148.66 65.0398 148.954C64.9689 149.088 64.898 149.218 64.835 149.348C64.0154 151.025 63.7321 152.913 64.0236 154.756L72.4407 166.415Z" fill="#ECB4B6"/>
<path d="M71.9012 134.613C72.0548 134.881 72.2675 135.11 72.4093 135.381C72.6482 135.981 72.7256 136.633 72.6338 137.272C72.5571 138.282 72.6234 139.298 72.8308 140.289C73.0395 141.179 73.4295 142.038 73.461 142.952C73.5043 144.24 72.8347 145.433 72.1888 146.548C72.5397 146.537 72.8848 146.455 73.2031 146.307C73.5213 146.159 73.8061 145.947 74.04 145.685C74.1255 145.969 74.1393 146.27 74.0802 146.561C74.0211 146.852 73.8909 147.123 73.7012 147.351C74.7607 147.3 75.6706 146.465 76.0645 145.488C76.4239 144.479 76.5281 143.397 76.3677 142.337C76.2135 141.287 76.1371 140.228 76.1393 139.167C76.2125 138.593 76.2428 138.015 76.2299 137.437C76.1314 136.291 75.4421 135.295 74.7489 134.365L73.3782 132.483C73.283 132.329 73.1466 132.204 72.9844 132.124C71.6885 131.573 71.5389 133.96 71.9012 134.613Z" fill="#464353"/>
<path opacity="0.1" d="M66.4774 147.064C66.1628 147.389 65.8719 147.736 65.607 148.103C65.4092 148.376 65.2277 148.66 65.0634 148.954C64.9926 149.088 64.9217 149.218 64.8586 149.348C63.2972 149.261 61.7742 148.83 60.3983 148.086C59.0224 147.343 57.8274 146.305 56.8985 145.047C56.8552 144.988 56.8118 144.929 56.7725 144.866C56.8158 144.791 56.8591 144.716 56.8985 144.641C58.214 142.227 59.0845 140.167 59.0845 140.167C59.0845 140.167 62.7869 141.349 65.1659 143.034C65.3589 143.168 65.54 143.306 65.7133 143.448C67.0249 144.543 67.6866 145.803 66.4774 147.064Z" fill="black"/>
<path d="M76.0801 138.332C76.0807 140.818 75.2098 143.227 73.6188 145.138C72.0278 147.049 69.8173 148.342 67.3716 148.793C66.7348 148.909 66.0889 148.967 65.4417 148.966H65.3944C65.2802 148.966 65.162 148.966 65.0478 148.966C62.963 148.889 60.947 148.2 59.2507 146.986C57.5544 145.771 56.2529 144.084 55.508 142.136C54.7632 140.187 54.608 138.062 55.0617 136.026C55.5154 133.99 56.5581 132.132 58.0599 130.684C59.5616 129.236 61.4561 128.261 63.5076 127.882C65.559 127.502 67.6767 127.735 69.5971 128.55C71.5175 129.365 73.1556 130.727 74.3077 132.466C75.4597 134.206 76.0747 136.245 76.0762 138.332H76.0801Z" fill="#ECB4B6"/>
<path opacity="0.1" d="M66.8359 164.626C66.8359 164.626 72.1925 167.647 70.8219 165.099L63.8306 154.764L71.7671 164.961C71.7671 164.961 76.8323 171.921 74.0634 176.714C74.0634 176.714 73.6695 180.7 74.1304 181.646C74.5912 182.591 73.9965 192.674 73.9965 192.674C73.9965 192.674 72.1019 190.917 71.0897 191.252C70.0774 191.587 62.9326 192.186 62.9326 192.186L66.8359 164.626Z" fill="black"/>
<path opacity="0.1" d="M73.5198 190.563L73.4213 192.43C72.7793 191.965 71.8852 191.445 71.2905 191.642C70.2782 191.981 63.1216 192.591 63.1216 192.591L63.4485 190.264L73.5198 190.563Z" fill="black"/>
<path d="M67.0367 164.626C67.0367 164.626 72.3973 167.647 71.0226 165.099L64.0314 154.764L71.9679 164.961C71.9679 164.961 77.0331 171.921 74.2642 176.714C74.2642 176.714 73.8703 180.7 74.3312 181.646C74.792 182.591 74.1972 192.674 74.1972 192.674C74.1972 192.674 72.3067 190.917 71.2944 191.252C70.2822 191.587 63.1216 192.201 63.1216 192.201L67.0367 164.626Z" fill="#464353"/>
<path opacity="0.1" d="M69.9004 169.806C69.5892 173.055 68.254 176.919 68.254 176.919C68.254 176.919 67.3087 186.51 66.0838 189.362C64.8588 192.213 65.4063 196.116 64.7328 203.344C64.4886 205.947 63.6496 207.736 62.5192 208.941C60.6601 210.91 58.0055 211.34 55.9101 211.217L55.4138 211.178C52.0344 210.843 48.7928 194.565 48.7928 194.565C48.7928 194.565 47.2409 180.716 47.8475 178.81C48.4541 176.903 47.2488 166.123 46.8431 163.76C46.5832 162.259 47.3591 159.821 47.9578 158.222C48.3083 157.3 48.5959 156.647 48.5959 156.647C48.5959 156.647 49.746 152.999 51.6366 151.109C51.8972 150.841 52.209 150.629 52.5534 150.484C52.8978 150.339 53.2678 150.265 53.6414 150.266C54.5302 150.302 55.3934 150.574 56.1424 151.054C56.1728 151.071 56.2017 151.091 56.2291 151.113C56.2291 151.113 68.5258 163.677 69.6719 166.58C69.991 167.395 70.0225 168.553 69.9004 169.806Z" fill="black"/>
<path d="M69.4985 169.605C69.1834 172.85 67.8482 176.714 67.8482 176.714C67.8482 176.714 66.9029 186.309 65.6859 189.145C64.4688 191.981 65.0123 195.9 64.3349 203.127C64.0907 205.727 63.2517 207.515 62.1213 208.724C60.2623 210.694 57.6076 211.119 55.5122 211.001L55.0159 210.961C51.6365 210.623 48.3949 194.344 48.3949 194.344C48.3949 194.344 46.8431 180.499 47.4496 178.609C48.0562 176.718 46.8431 165.91 46.4374 163.543C46.1774 162.047 46.9533 159.605 47.552 158.005C47.9026 157.084 48.1901 156.45 48.1901 156.45C48.1901 156.45 49.3402 152.802 51.2308 150.912C51.4907 150.643 51.8024 150.431 52.147 150.286C52.4917 150.142 52.862 150.07 53.2356 150.073C54.1251 150.105 54.9894 150.377 55.7367 150.861L55.8233 150.916C55.8233 150.916 68.12 163.48 69.2662 166.383C69.5852 167.191 69.6285 168.352 69.4985 169.605Z" fill="#FF748E"/>
<path opacity="0.1" d="M55.7247 219.052C55.7247 219.052 52.9361 221.533 51.975 221.415C51.014 221.297 55.7247 219.052 55.7247 219.052Z" fill="black"/>
<path opacity="0.1" d="M56.4653 221.434C56.4653 221.434 53.527 222.797 52.6486 223.01C51.7703 223.223 55.3309 221.084 56.4653 221.434Z" fill="black"/>
<path opacity="0.1" d="M67.8325 184.147C67.8325 184.147 72.1887 184.198 72.8465 185.565C73.5043 186.931 69.2347 183.587 67.8325 184.147Z" fill="black"/>
<path opacity="0.1" d="M67.2222 186.526C67.2222 186.526 70.5661 187.235 71.5784 188.046C72.5906 188.857 67.2222 186.526 67.2222 186.526Z" fill="black"/>
<path opacity="0.1" d="M61.6012 178.27C61.6012 178.27 61.2074 191.997 59.7028 193.773C58.1982 195.549 61.6012 178.27 61.6012 178.27Z" fill="black"/>
<path opacity="0.1" d="M57.8519 217.074C57.8519 217.074 55.0555 229.182 60.6642 229.93C66.2729 230.679 64.5399 216.145 64.5399 216.145L57.8519 217.074Z" fill="black"/>
<path d="M57.6468 216.873C57.6468 216.873 54.8661 228.981 60.463 229.737C66.0599 230.494 64.3348 215.952 64.3348 215.952L57.6468 216.873Z" fill="#ECB4B6"/>
<path opacity="0.1" d="M76.0133 137.158C75.8573 136.926 75.7253 136.68 75.6195 136.421C74.875 134.869 72.9608 135.634 71.5586 136.37L70.8103 137.335C70.4688 137.736 70.1814 138.179 69.9556 138.655C69.8118 139.041 69.6922 139.435 69.5972 139.836C69.4042 140.521 69.1206 141.175 68.8646 141.845C68.0154 144.071 67.512 146.414 67.3718 148.793C66.735 148.908 66.089 148.966 65.4418 148.966H65.3946V148.919C65.4655 148.651 65.5245 148.379 65.5797 148.107C65.8729 146.575 65.9088 145.004 65.686 143.46C65.686 143.424 65.686 143.393 65.686 143.357C65.6348 143.015 65.5679 142.668 65.5403 142.325C65.4103 142.562 65.2843 142.802 65.1464 143.046C64.2996 144.622 63.4094 146.197 61.8103 146.886C61.1614 147.141 60.4774 147.295 59.7819 147.343C58.9233 147.389 58.0726 147.53 57.2454 147.765C56.9633 147.842 56.7083 147.996 56.5088 148.21C56.2862 148.539 56.1581 148.923 56.1386 149.321C56.0532 149.845 55.9214 150.36 55.7447 150.861C55.0215 152.73 53.8913 154.414 52.4362 155.792L52.0699 156.146C51.446 156.79 50.702 157.305 49.88 157.663C49.1331 157.914 48.3477 158.031 47.5601 158.009C47.9106 157.088 48.1981 156.454 48.1981 156.454C48.1981 156.454 49.3482 152.806 51.2388 150.916C51.4987 150.647 51.8104 150.435 52.1551 150.29C52.4997 150.146 52.87 150.074 53.2436 150.077C54.6549 148.408 55.878 146.59 56.8909 144.653C55.9229 143.34 55.2701 141.821 54.9831 140.215C54.696 138.609 54.7824 136.958 55.2355 135.391C55.6886 133.823 56.4962 132.381 57.596 131.176C58.6957 129.971 60.0581 129.035 61.5775 128.44C63.097 127.846 64.7328 127.609 66.3585 127.748C67.9841 127.887 69.556 128.399 70.9523 129.243C72.3487 130.087 73.5322 131.24 74.4112 132.615C75.2901 133.99 75.841 135.548 76.0212 137.17L76.0133 137.158Z" fill="black"/>
<path d="M76.6906 128.859C76.0604 128.158 75.1742 127.748 74.3273 127.343C74.0259 127.228 73.7606 127.035 73.5593 126.783C73.4124 126.482 73.3318 126.153 73.323 125.818C73.0276 123.762 71.1134 122.34 69.211 121.505C66.7611 120.43 63.8189 119.969 61.4674 121.245C60.3252 121.868 59.4233 122.841 58.3913 123.632C57.0837 124.633 55.5791 125.334 54.1848 126.208C52.7905 127.083 51.4592 128.178 50.7975 129.698C49.7734 132.022 50.5415 134.688 50.6714 137.225C50.8723 141.227 49.2456 145.406 46.0159 147.773C45.6268 148.011 45.2806 148.313 44.9918 148.667C44.8506 148.845 44.7671 149.063 44.7523 149.29C44.7376 149.517 44.7922 149.744 44.9091 149.939C45.0706 150.16 45.3384 150.286 45.5157 150.49C45.8859 150.912 45.8111 151.554 45.6653 152.097C45.1988 153.853 44.265 155.45 42.9634 156.717C43.0185 157.135 43.5227 157.296 43.9362 157.36C45.0302 157.522 46.1348 157.602 47.2408 157.6C48.1028 157.67 48.9694 157.539 49.7715 157.215C50.5736 156.892 51.2891 156.386 51.8609 155.737C53.8303 153.886 55.4964 151.574 55.9414 148.911C55.9646 148.515 56.0924 148.131 56.3117 147.8C56.514 147.59 56.768 147.436 57.0482 147.355C58.5174 146.851 60.1992 147.099 61.6132 146.477C63.4565 145.689 64.3703 143.72 65.3353 141.916C65.3668 142.258 65.4298 142.605 65.4849 142.952C65.7662 144.805 65.6724 146.696 65.2092 148.513C64.9453 149.541 64.5633 150.565 64.5908 151.625C64.6105 152.412 65.4101 156.528 66.4617 155.296C67.5134 154.063 67.1274 151.337 67.1274 149.809C67.1286 146.948 67.6532 144.111 68.6753 141.439C68.9274 140.774 69.2149 140.116 69.4079 139.43C69.5034 139.03 69.6217 138.636 69.7624 138.249C69.9911 137.774 70.2797 137.331 70.621 136.929L71.3733 135.964C72.7755 135.22 74.6897 134.464 75.4341 136.016C75.7177 136.61 75.8713 137.268 76.6157 136.689C77.0529 136.346 77.1947 135.673 77.309 135.161C77.7777 133.014 78.1637 130.49 76.6906 128.859Z" fill="#464353"/>
<path opacity="0.1" d="M62.4366 166.044C62.149 158.77 51.9675 157.265 49.5924 164.146C49.5731 164.192 49.5573 164.239 49.5451 164.288C47.9894 168.947 48.6668 180.748 48.6668 180.748C48.6668 180.748 48.8677 188.672 49.6121 191.307C50.3565 193.942 52.448 201.505 52.448 202.73C52.448 203.954 54.3898 208.606 55.2051 208.945C56.0204 209.284 56.434 211.915 56.6348 212.387C56.8357 212.86 57.4226 219.008 57.4226 219.008C57.4226 219.008 65.0558 218.536 65.1897 217.318C65.3236 216.101 63.5 210.158 63.5 210.158C63.5 210.158 62.1569 207.728 61.9836 205.77C61.8103 203.813 60.7547 202.923 60.9635 201.572C61.1722 200.221 60.353 199.547 60.353 198.669C60.353 197.79 59.7464 195.427 59.7464 195.427C59.7464 195.427 58.4624 194.411 58.6672 193.198C58.872 191.985 56.8436 189.551 57.3832 188.672C57.9228 187.794 58.0567 185.632 58.0567 185.632C58.0567 185.632 58.7342 175.907 59.2068 173.272C59.6795 170.637 62.4484 166.383 62.4484 166.383C62.4484 166.383 62.4444 166.261 62.4366 166.044Z" fill="black"/>
<path opacity="0.1" d="M62.1213 208.724C60.2622 210.694 57.6075 211.119 55.5121 211.001C55.2679 210.079 54.9134 208.945 54.3975 208.732C53.5782 208.393 51.6404 203.734 51.6404 202.521C51.6404 201.308 49.5489 193.737 48.8045 191.098C48.0601 188.46 47.8592 180.543 47.8592 180.543C47.8592 180.543 47.1817 168.727 48.7375 164.079C48.7375 164.036 48.7651 163.988 48.7848 163.941C51.148 157.056 61.3414 158.565 61.6289 165.84C61.6289 166.056 61.6289 166.174 61.6289 166.174C61.6289 166.174 58.8718 170.428 58.3874 173.063C57.9029 175.698 57.2451 185.423 57.2451 185.423C57.2451 185.423 57.1073 187.585 56.5677 188.463C56.0281 189.342 58.0526 191.776 57.8517 192.989C57.6508 194.202 58.9309 195.218 58.9309 195.218C58.9309 195.218 59.5375 197.582 59.5375 198.464C59.5375 199.346 60.3489 200.016 60.148 201.367C59.9471 202.718 61.0263 203.596 61.1996 205.554C61.3443 206.651 61.6551 207.72 62.1213 208.724Z" fill="black"/>
<path d="M62.0308 165.843C61.7433 158.569 51.5617 157.064 49.1867 163.945L49.1394 164.083C47.5836 168.746 48.2611 180.547 48.2611 180.547C48.2611 180.547 48.4619 188.467 49.2063 191.102C49.9508 193.737 52.0422 201.304 52.0422 202.525C52.0422 203.746 53.984 208.401 54.7993 208.74C55.6146 209.079 56.0282 211.714 56.2291 212.186C56.4299 212.659 57.0168 218.803 57.0168 218.803C57.0168 218.803 64.6501 218.331 64.784 217.118C64.9179 215.905 63.0982 209.957 63.0982 209.957C63.0982 209.957 61.7512 207.523 61.5778 205.565C61.4045 203.608 60.3253 202.73 60.5301 201.379C60.735 200.028 59.9197 199.35 59.9197 198.472C59.9197 197.593 59.3131 195.23 59.3131 195.23C59.3131 195.23 58.0291 194.218 58.2339 193.001C58.4387 191.784 56.4103 189.354 56.9499 188.475C57.4895 187.597 57.6234 185.439 57.6234 185.439C57.6234 185.439 58.3008 175.71 58.7735 173.075C59.2461 170.44 62.015 166.186 62.015 166.186C62.015 166.186 62.0387 166.06 62.0308 165.843Z" fill="#FF748E"/>
<path opacity="0.1" d="M49.4937 184.552C49.6945 184.348 53.5466 180.094 54.7597 181.614C55.9728 183.134 49.4937 184.552 49.4937 184.552Z" fill="black"/>
<path opacity="0.1" d="M49.8481 187.845C49.9978 187.692 53.6963 187.542 54.61 185.482C55.5238 183.422 49.8481 187.845 49.8481 187.845Z" fill="black"/>
<g opacity="0.1">
<path opacity="0.1" d="M45.6339 150.49C45.7249 150.598 45.7932 150.722 45.8348 150.857C45.9092 150.627 45.9298 150.383 45.895 150.144C45.8602 149.905 45.7708 149.677 45.6339 149.478C45.4527 149.269 45.1888 149.147 45.0234 148.927C45.0234 148.927 45.0037 148.891 44.9919 148.872C44.9005 149.036 44.8553 149.222 44.8608 149.41C44.8664 149.597 44.9225 149.78 45.0234 149.939C45.2085 150.16 45.4527 150.286 45.6339 150.49Z" fill="black"/>
<path opacity="0.1" d="M50.7899 137.371C50.7899 136.977 50.7899 136.583 50.7899 136.22C50.719 134.842 50.463 133.428 50.396 132.045C50.3133 133.739 50.6914 135.515 50.7899 137.233C50.7899 137.272 50.786 137.315 50.7899 137.371Z" fill="black"/>
<path opacity="0.1" d="M66.5762 154.283C65.6388 155.382 64.9022 152.219 64.7407 150.971C64.7152 151.188 64.7033 151.406 64.7053 151.625C64.7289 152.412 65.5245 156.528 66.5762 155.296C67.2891 154.461 67.3639 153.039 67.3167 151.727C67.2654 152.731 67.1079 153.661 66.5762 154.283Z" fill="black"/>
<path opacity="0.1" d="M65.5992 142.952C65.6793 143.481 65.728 144.015 65.7449 144.551C65.7791 143.676 65.7303 142.801 65.5992 141.935C65.548 141.593 65.481 141.246 65.4495 140.9C64.4767 142.719 63.5747 144.665 61.7314 145.465C60.3016 146.083 58.6355 145.839 57.1664 146.343C56.8844 146.42 56.6293 146.574 56.4299 146.788C56.2083 147.118 56.0803 147.502 56.0596 147.899C55.6106 150.561 53.9406 152.873 51.9752 154.725C51.4033 155.373 50.6879 155.88 49.8857 156.203C49.0836 156.527 48.2171 156.658 47.3551 156.588C46.2505 156.588 45.1473 156.508 44.0544 156.347C43.885 156.321 43.7187 156.278 43.5582 156.217C43.4046 156.391 43.2431 156.556 43.0776 156.717C43.1328 157.135 43.6409 157.296 44.0544 157.36C45.1471 157.522 46.2504 157.602 47.3551 157.6C48.2171 157.67 49.0836 157.539 49.8857 157.215C50.6879 156.892 51.4033 156.386 51.9752 155.737C53.9445 153.886 55.6106 151.574 56.0596 148.911C56.0809 148.514 56.2088 148.13 56.4299 147.8C56.6309 147.588 56.8853 147.435 57.1664 147.355C58.6355 146.851 60.3174 147.099 61.7314 146.477C63.5747 145.689 64.4885 143.72 65.4495 141.916C65.481 142.258 65.548 142.605 65.5992 142.952Z" fill="black"/>
<path opacity="0.1" d="M77.4233 134.149C77.3091 134.661 77.1633 135.33 76.7261 135.677C75.9856 136.252 75.836 135.598 75.5445 135.003C74.8001 133.452 72.8859 134.216 71.4837 134.952L70.7314 135.917C70.3899 136.318 70.1026 136.761 69.8767 137.237C69.7325 137.622 69.6141 138.017 69.5222 138.418C69.3253 139.104 69.0417 139.757 68.7857 140.423C67.7675 143.096 67.2443 145.932 67.2417 148.793C67.2417 148.923 67.2417 149.065 67.2417 149.21C67.3118 146.551 67.8326 143.924 68.7817 141.439C69.0378 140.774 69.3213 140.116 69.5183 139.43C69.6101 139.029 69.7285 138.634 69.8728 138.249C70.0986 137.773 70.386 137.33 70.7275 136.929L71.4798 135.964C72.8819 135.22 74.7962 134.464 75.5406 136.016C75.8281 136.61 75.9778 137.268 76.7222 136.689C77.1594 136.346 77.3051 135.673 77.4193 135.161C77.7163 133.974 77.8488 132.752 77.8132 131.529C77.7501 132.411 77.6197 133.287 77.4233 134.149Z" fill="black"/>
</g>
<path d="M86.6362 172.496L86.845 172.638C86.7516 172.576 86.6717 172.495 86.61 172.402C86.5483 172.308 86.5061 172.203 86.4859 172.093C86.4656 171.983 86.4678 171.869 86.4923 171.76C86.5168 171.651 86.5631 171.547 86.6283 171.456L96.0182 157.852C96.0802 157.761 96.1595 157.684 96.2516 157.624C96.3437 157.564 96.4468 157.523 96.5548 157.503C96.6629 157.483 96.7738 157.485 96.8811 157.509C96.9884 157.532 97.0901 157.576 97.1801 157.639L96.9714 157.493C97.2642 157.696 97.4648 158.006 97.529 158.356C97.5933 158.706 97.516 159.067 97.3141 159.36L88.5032 172.149C88.3008 172.442 87.9909 172.643 87.6411 172.708C87.2914 172.772 86.9301 172.696 86.6362 172.496Z" fill="#464353"/>
<path d="M97.0722 157.545L97.2311 157.654L86.8952 172.66L86.7363 172.55C86.5866 172.447 86.484 172.289 86.4511 172.11C86.4181 171.931 86.4575 171.747 86.5607 171.597L96.1168 157.724C96.2199 157.574 96.3783 157.471 96.557 157.439C96.7358 157.406 96.9203 157.445 97.07 157.548L97.0722 157.545Z" fill="#9F9EFF"/>
<path d="M95.9105 159.595L95.8813 159.575C95.8509 159.554 95.8092 159.562 95.7882 159.592L95.0218 160.705C95.0008 160.735 95.0085 160.777 95.039 160.798L95.0682 160.818C95.0986 160.839 95.1403 160.832 95.1613 160.801L95.9277 159.689C95.9486 159.658 95.941 159.616 95.9105 159.595Z" fill="#464353"/>
<path d="M295.167 111.072C295.17 112.418 294.774 113.734 294.029 114.855C293.283 115.976 292.222 116.85 290.979 117.367C289.736 117.885 288.368 118.022 287.048 117.761C285.727 117.5 284.514 116.854 283.561 115.903C282.608 114.952 281.959 113.74 281.695 112.42C281.431 111.1 281.565 109.732 282.079 108.488C282.594 107.244 283.465 106.181 284.584 105.433C285.703 104.685 287.019 104.285 288.365 104.285C290.166 104.285 291.894 105 293.169 106.272C294.445 107.544 295.163 109.27 295.167 111.072ZM287.577 114.672L292.627 109.626C292.708 109.544 292.753 109.433 292.753 109.317C292.753 109.201 292.708 109.09 292.627 109.008L292.005 108.386C291.964 108.344 291.916 108.312 291.863 108.29C291.81 108.267 291.753 108.256 291.695 108.256C291.638 108.256 291.581 108.267 291.528 108.29C291.475 108.312 291.426 108.344 291.386 108.386L287.27 112.501L285.348 110.587C285.265 110.506 285.153 110.46 285.037 110.46C284.921 110.46 284.809 110.506 284.726 110.587L284.107 111.21C284.066 111.25 284.034 111.298 284.011 111.351C283.989 111.404 283.978 111.461 283.978 111.519C283.978 111.576 283.989 111.633 284.011 111.686C284.034 111.739 284.066 111.788 284.107 111.828L286.959 114.68C286.999 114.721 287.047 114.753 287.101 114.776C287.154 114.798 287.211 114.809 287.268 114.809C287.326 114.809 287.383 114.798 287.436 114.776C287.489 114.753 287.537 114.721 287.577 114.68V114.672Z" fill="#3ACC6C"/>
<path d="M212.765 185.726C212.765 187.071 212.367 188.387 211.619 189.505C210.872 190.624 209.809 191.496 208.566 192.01C207.323 192.525 205.956 192.66 204.636 192.398C203.317 192.135 202.105 191.487 201.153 190.536C200.202 189.585 199.554 188.373 199.292 187.053C199.029 185.734 199.164 184.366 199.679 183.123C200.194 181.88 201.066 180.818 202.184 180.07C203.303 179.323 204.618 178.924 205.963 178.924C207.767 178.924 209.498 179.641 210.773 180.916C212.049 182.192 212.765 183.922 212.765 185.726ZM205.176 189.326L210.241 184.281C210.282 184.24 210.315 184.191 210.337 184.138C210.359 184.085 210.371 184.027 210.371 183.969C210.371 183.912 210.359 183.854 210.337 183.801C210.315 183.747 210.282 183.699 210.241 183.658L209.603 183.06C209.562 183.018 209.514 182.986 209.46 182.963C209.407 182.941 209.349 182.929 209.292 182.929C209.234 182.929 209.176 182.941 209.123 182.963C209.069 182.986 209.021 183.018 208.98 183.06L204.864 187.156L202.942 185.234C202.902 185.193 202.854 185.16 202.801 185.138C202.748 185.115 202.691 185.104 202.633 185.104C202.576 185.104 202.519 185.115 202.465 185.138C202.412 185.16 202.364 185.193 202.324 185.234L201.702 185.852C201.62 185.935 201.575 186.047 201.575 186.163C201.575 186.28 201.62 186.391 201.702 186.474L204.553 189.326C204.594 189.367 204.642 189.4 204.696 189.422C204.749 189.445 204.806 189.456 204.864 189.456C204.922 189.456 204.98 189.445 205.033 189.422C205.086 189.4 205.135 189.367 205.176 189.326Z" fill="#3ACC6C"/>
<path d="M212.765 260.034C212.765 261.379 212.367 262.694 211.619 263.813C210.872 264.932 209.809 265.803 208.566 266.318C207.323 266.833 205.956 266.968 204.636 266.705C203.317 266.443 202.105 265.795 201.153 264.844C200.202 263.892 199.554 262.68 199.292 261.361C199.029 260.041 199.164 258.674 199.679 257.431C200.194 256.188 201.066 255.126 202.184 254.378C203.303 253.631 204.618 253.232 205.963 253.232C207.767 253.232 209.498 253.948 210.773 255.224C212.049 256.5 212.765 258.23 212.765 260.034ZM205.176 263.634L210.241 258.588C210.282 258.548 210.315 258.499 210.337 258.446C210.359 258.392 210.371 258.335 210.371 258.277C210.371 258.219 210.359 258.162 210.337 258.109C210.315 258.055 210.282 258.007 210.241 257.966L209.622 257.348C209.582 257.307 209.533 257.274 209.48 257.251C209.426 257.229 209.369 257.218 209.311 257.218C209.253 257.218 209.196 257.229 209.143 257.251C209.089 257.274 209.041 257.307 209 257.348L204.884 261.464L202.962 259.542C202.922 259.5 202.874 259.468 202.82 259.446C202.767 259.423 202.71 259.412 202.653 259.412C202.595 259.412 202.538 259.423 202.485 259.446C202.432 259.468 202.384 259.5 202.344 259.542L201.721 260.16C201.64 260.243 201.594 260.355 201.594 260.471C201.594 260.587 201.64 260.699 201.721 260.782L204.573 263.634C204.614 263.675 204.662 263.708 204.715 263.73C204.769 263.752 204.826 263.764 204.884 263.764C204.942 263.764 204.999 263.752 205.053 263.73C205.106 263.708 205.155 263.675 205.195 263.634H205.176Z" fill="#3ACC6C"/>
</g>
<defs>
<linearGradient id="paint0_linear" x1="210.934" y1="277.861" x2="210.934" y2="0" gradientUnits="userSpaceOnUse">
<stop stop-color="#808080" stop-opacity="0.25"/>
<stop offset="0.54" stop-color="#808080" stop-opacity="0.12"/>
<stop offset="1" stop-color="#808080" stop-opacity="0.1"/>
</linearGradient>
<linearGradient id="paint1_linear" x1="19585.1" y1="148148" x2="19585.1" y2="65119.3" gradientUnits="userSpaceOnUse">
<stop stop-color="#808080" stop-opacity="0.25"/>
<stop offset="0.54" stop-color="#808080" stop-opacity="0.12"/>
<stop offset="1" stop-color="#808080" stop-opacity="0.1"/>
</linearGradient>
<clipPath id="clip0">
<rect width="400" height="308.61" fill="white"/>
</clipPath>
</defs>
</svg>
